<?xml version="1.0" encoding="utf-8"?>
<!-- Generator: Adobe Illustrator 16.0.0, SVG Export Plug-In . SVG Version: 6.00 Build 0)  -->
<!DOCTYPE svg PUBLIC "-//W3C//DTD SVG 1.1//EN" "http://www.w3.org/Graphics/SVG/1.1/DTD/svg11.dtd">
<svg version="1.1" id="Layer_1" xmlns="http://www.w3.org/2000/svg" xmlns:xlink="http://www.w3.org/1999/xlink" x="0px" y="0px"
	 width="644.667px" height="78.333px" viewBox="-87.374 1.115 644.667 78.333"
	 enable-background="new -87.374 1.115 644.667 78.333" xml:space="preserve">
<g>
	<path fill="#BB9631" d="M-71.437,60.715c-0.394,0.17-0.907,0.033-1.146-0.43l-1.18-2.63c-1.109-0.273-2.221-0.291-3.296-0.053
		c-0.872,0.172-1.725,0.497-2.563,1.01c-0.855,0.53-1.745,1.229-2.393,1.862c-0.324,0.324-0.751,0.427-1.11,0.205
		c-0.377-0.239-0.326-0.719-0.154-1.111l5.399-11.723c0.154-0.308,0.445-0.494,0.786-0.494c0.326,0,0.65,0.204,0.77,0.494
		l5.315,11.723C-70.823,60.012-71.011,60.509-71.437,60.715z M-77.111,50.255l-3.28,6.989c0.906-0.512,2.101-0.974,3.058-1.162
		c0.922-0.205,1.863-0.238,2.802-0.153L-77.111,50.255z"/>
	<path fill="#BB9631" d="M-62.473,60.782c-0.462,0-0.856-0.376-0.856-0.855V48.206c0-0.479,0.394-0.854,0.856-0.854h5.074
		c0.068,0,0.478,0,1.009,0.136c0.752,0.188,1.419,0.563,1.931,1.061c0.375,0.375,0.683,0.838,0.889,1.366
		c0.221,0.58,0.341,1.246,0.341,1.98c0,1.624-0.684,2.854-1.965,3.59c-0.92,0.528-2.152,0.785-3.674,0.785
		c-0.461,0-0.854-0.378-0.854-0.855c0-0.479,0.394-0.854,0.854-0.854c1.214,0,2.17-0.188,2.82-0.565
		c0.752-0.427,1.111-1.094,1.111-2.102c0-0.682-0.137-1.247-0.377-1.674c-0.188-0.343-0.462-0.597-0.786-0.785
		c-0.615-0.358-1.247-0.377-1.298-0.377h-4.22v10.868C-61.62,60.406-61.996,60.782-62.473,60.782z"/>
	<path fill="#BB9631" d="M-41.981,59.927c0,0.479-0.377,0.855-0.855,0.855h-8.166c-0.462,0-0.855-0.376-0.855-0.855V48.206
		c0-0.479,0.393-0.854,0.855-0.854h7.997c0.479,0,0.854,0.375,0.854,0.854c0,0.478-0.376,0.854-0.854,0.854h-7.143v4.119h6.323
		c0.479,0,0.854,0.393,0.854,0.854c0,0.479-0.376,0.855-0.854,0.855h-6.323v4.185h7.312C-42.358,59.072-41.981,59.448-41.981,59.927
		z"/>
	<path fill="#BB9631" d="M-31.451,60.763c-0.392,0-0.75-0.29-0.837-0.701c-0.205-1.041-0.53-1.879-0.974-2.512
		c-0.326-0.479-0.736-0.82-1.195-1.042c-0.359-0.188-0.719-0.257-0.992-0.274c-0.223,0-0.462,0.018-0.701,0.018
		c-0.427,0-0.802-0.341-0.836-0.787c-0.051-0.427,0.256-0.838,0.682-0.905c0.069-0.017,0.394-0.085,0.872-0.052
		c0.889-0.051,1.589-0.239,2.103-0.53c0.751-0.427,1.11-1.094,1.11-2.101c0-0.685-0.136-1.247-0.375-1.693
		c-0.188-0.324-0.462-0.582-0.786-0.786c-0.617-0.342-1.247-0.357-1.299-0.357h-4.219v10.865c0,0.463-0.377,0.854-0.855,0.854
		c-0.461,0-0.854-0.391-0.854-0.854V48.184c0-0.477,0.394-0.855,0.854-0.855h5.075c0.069,0,0.478,0,1.009,0.136
		c0.751,0.189,1.419,0.548,1.93,1.061c0.377,0.377,0.685,0.836,0.889,1.366c0.223,0.581,0.342,1.246,0.342,1.982
		c0,1.605-0.683,2.854-1.964,3.588c-0.085,0.052-0.171,0.087-0.274,0.137c0.309,0.258,0.582,0.548,0.838,0.889
		c0.616,0.838,1.042,1.931,1.299,3.248c0.086,0.461-0.205,0.922-0.667,1.008C-31.347,60.748-31.398,60.763-31.451,60.763z"/>
	<path fill="#BB9631" d="M-19.398,48.206c0,0.478-0.376,0.854-0.854,0.854h-7.176v4.29h6.134c0.462,0,0.856,0.392,0.856,0.854
		c0,0.479-0.394,0.854-0.856,0.854h-6.134v4.869c0,0.462-0.375,0.855-0.854,0.855c-0.479,0-0.855-0.394-0.855-0.855V48.206
		c0-0.463,0.377-0.854,0.855-0.854h8.031C-19.774,47.352-19.398,47.745-19.398,48.206z"/>
	<path fill="#BB9631" d="M-8.148,59.927c0,0.479-0.377,0.855-0.855,0.855h-8.167c-0.462,0-0.855-0.376-0.855-0.855V48.206
		c0-0.479,0.394-0.854,0.855-0.854h7.996c0.48,0,0.855,0.375,0.855,0.854c0,0.478-0.375,0.854-0.855,0.854h-7.141v4.119h6.323
		c0.479,0,0.854,0.393,0.854,0.854c0,0.479-0.375,0.855-0.854,0.855h-6.323v4.185h7.312C-8.525,59.072-8.148,59.448-8.148,59.927z"
		/>
	<path fill="#BB9631" d="M-0.437,61.004c-0.957,0-1.879-0.189-2.751-0.564c-0.819-0.36-1.572-0.854-2.22-1.504
		c-0.65-0.634-1.146-1.385-1.504-2.223c-0.377-0.854-0.548-1.758-0.548-2.683c0-0.94,0.189-1.844,0.548-2.698
		c0.359-0.821,0.871-1.574,1.521-2.206c0.649-0.648,1.417-1.143,2.255-1.502c0.872-0.359,1.793-0.547,2.734-0.547
		c1.537,0,2.973,0.479,4.168,1.4c0.377,0.29,0.445,0.82,0.171,1.195c-0.291,0.376-0.837,0.443-1.196,0.172
		c-0.906-0.702-1.981-1.061-3.144-1.061c-0.718,0-1.419,0.136-2.084,0.41c-0.633,0.272-1.213,0.65-1.708,1.144
		c-0.479,0.479-0.871,1.042-1.145,1.674c-0.275,0.634-0.411,1.316-0.411,2.018s0.136,1.366,0.411,2.017
		c0.274,0.633,0.649,1.196,1.145,1.673c1.009,1.01,2.342,1.574,3.76,1.574c0.631,0,1.229-0.12,1.811-0.326
		c0.565-0.204,1.077-0.512,1.539-0.89c0.359-0.308,0.889-0.255,1.195,0.104c0.308,0.358,0.257,0.904-0.102,1.194
		c-0.616,0.514-1.299,0.906-2.034,1.18C1.202,60.849,0.385,61.004-0.437,61.004z"/>
	<path fill="#BB9631" d="M16.605,48.206c0,0.478-0.377,0.854-0.856,0.854h-3.741v10.867c0,0.479-0.392,0.855-0.854,0.855
		c-0.479,0-0.854-0.376-0.854-0.855V49.059H6.541c-0.479,0-0.854-0.376-0.854-0.854c0-0.479,0.376-0.854,0.854-0.854h9.208
		C16.23,47.352,16.605,47.726,16.605,48.206z"/>
	<path fill="#BB9631" d="M35.069,57.364c-0.171,2.119-1.76,3.418-4.033,3.418h-5.877c-0.223,0-0.445-0.086-0.598-0.239
		c-0.154-0.171-0.257-0.377-0.257-0.616V48.206c0-0.479,0.394-0.854,0.855-0.854h5.058c2.238,0,3.794,1.008,4.084,3.074
		c0.223,1.605-0.462,2.598-1.264,3.179C34.164,53.999,35.222,55.434,35.069,57.364z M33.36,57.211
		c0.171-1.675-0.753-2.494-2.426-2.494h-0.052l-1.333,0.017h-0.016c-0.462,0-0.839-0.394-0.856-0.855
		c0-0.479,0.394-0.854,0.856-0.854l1.296-0.018c1.266-0.136,1.931-0.991,1.778-2.374c-0.136-1.111-0.939-1.574-2.391-1.574h-4.204
		v9.997h5.024C32.421,59.055,33.24,58.473,33.36,57.211z"/>
	<path fill="#BB9631" d="M44.762,60.782h-7.448c-0.462,0-0.856-0.376-0.856-0.855V48.206c0-0.479,0.393-0.854,0.856-0.854
		c0.477,0,0.854,0.375,0.854,0.854v10.866h6.594c0.479,0,0.856,0.376,0.856,0.854C45.619,60.406,45.241,60.782,44.762,60.782z"/>
	<path fill="#BB9631" d="M56.867,59.927c0,0.479-0.375,0.855-0.854,0.855h-8.168c-0.461,0-0.854-0.376-0.854-0.855V48.206
		c0-0.479,0.393-0.854,0.854-0.854h7.997c0.479,0,0.854,0.375,0.854,0.854c0,0.478-0.375,0.854-0.854,0.854h-7.143v4.119h6.322
		c0.479,0,0.855,0.393,0.855,0.854c0,0.479-0.377,0.855-0.855,0.855h-6.322v4.185h7.314C56.491,59.072,56.867,59.448,56.867,59.927z
		"/>
	<path fill="#BB9631" d="M69.192,60.715c-0.342,0.101-0.77,0.051-0.992-0.224l-8.253-9.926v9.361c0,0.479-0.375,0.855-0.854,0.855
		c-0.479,0-0.855-0.376-0.855-0.855V48.206c0-0.36,0.223-0.686,0.565-0.804c0.34-0.119,0.717-0.017,0.938,0.258l8.271,9.909V48.19
		c0-0.479,0.375-0.855,0.854-0.855c0.462,0,0.856,0.376,0.856,0.855v11.754C69.721,60.303,69.55,60.609,69.192,60.715z"/>
	<path fill="#BB9631" d="M75.845,60.782h-0.018h-3.861c-0.496,0-0.871-0.394-0.871-0.855V48.206c0-0.223,0.086-0.445,0.256-0.599
		c0.155-0.154,0.394-0.256,0.616-0.256h3.912c0.939,0,1.845,0.187,2.684,0.528c0.819,0.343,1.572,0.839,2.222,1.453
		c0.632,0.615,1.127,1.334,1.486,2.152c0.358,0.838,0.546,1.709,0.546,2.615c0,0.889-0.188,1.743-0.563,2.562
		c-0.359,0.804-0.856,1.521-1.506,2.137c-0.649,0.634-1.399,1.11-2.22,1.453C77.675,60.594,76.768,60.782,75.845,60.782z
		 M72.822,59.055h3.057c0.701-0.018,1.366-0.154,1.999-0.41c0.632-0.257,1.197-0.616,1.674-1.077
		c0.479-0.461,0.857-1.008,1.145-1.605c0.274-0.597,0.41-1.214,0.41-1.862c0-0.666-0.136-1.314-0.41-1.93
		c-0.271-0.599-0.647-1.146-1.125-1.605c-0.992-0.976-2.291-1.506-3.692-1.506h-3.057V59.055L72.822,59.055z"/>
	<path fill="#BB9631" d="M97.453,61.073c-0.939,0-1.863-0.188-2.734-0.564c-0.836-0.359-1.589-0.854-2.237-1.505
		c-0.633-0.649-1.145-1.382-1.504-2.221c-0.358-0.854-0.548-1.76-0.548-2.683c0-0.94,0.189-1.845,0.564-2.699
		c0.359-0.821,0.872-1.573,1.521-2.204c0.648-0.649,1.4-1.146,2.237-1.505c0.871-0.358,1.795-0.547,2.752-0.547
		c1.863,0,3.604,0.734,4.902,2.067c0.632,0.633,1.111,1.384,1.454,2.204c0.359,0.854,0.53,1.76,0.53,2.683
		c0,0.939-0.171,1.845-0.53,2.681c-0.342,0.839-0.837,1.592-1.469,2.223C101.075,60.336,99.331,61.073,97.453,61.073z
		 M97.505,48.855c-0.718,0-1.417,0.136-2.084,0.41c-0.649,0.272-1.214,0.649-1.708,1.145c-0.497,0.478-0.889,1.042-1.146,1.674
		c-0.29,0.634-0.428,1.314-0.428,2.017c0,0.7,0.138,1.365,0.411,2.015c0.273,0.634,0.648,1.197,1.146,1.676
		c1.007,1.009,2.341,1.572,3.759,1.572c1.419,0,2.734-0.565,3.726-1.555c0.478-0.478,0.837-1.041,1.109-1.673
		c0.257-0.649,0.392-1.335,0.392-2.034c0-1.399-0.529-2.718-1.486-3.689C100.22,49.402,98.906,48.855,97.505,48.855z"/>
	<path fill="#BB9631" d="M115.419,48.206c0,0.478-0.377,0.854-0.854,0.854h-7.177v4.29h6.134c0.462,0,0.855,0.392,0.855,0.854
		c0,0.479-0.392,0.854-0.855,0.854h-6.134v4.869c0,0.462-0.376,0.855-0.854,0.855s-0.856-0.394-0.856-0.855V48.206
		c0-0.463,0.377-0.854,0.856-0.854h8.032C115.043,47.352,115.419,47.745,115.419,48.206z"/>
	<path fill="#BB9631" d="M135.009,60.715c-0.391,0.17-0.906,0.033-1.145-0.43l-1.179-2.63c-1.11-0.273-2.222-0.291-3.297-0.053
		c-0.871,0.172-1.725,0.497-2.562,1.01c-0.856,0.53-1.744,1.229-2.393,1.862c-0.324,0.324-0.75,0.427-1.109,0.205
		c-0.378-0.239-0.327-0.719-0.154-1.111l5.399-11.723c0.154-0.308,0.443-0.494,0.786-0.494c0.325,0,0.649,0.204,0.769,0.494
		l5.313,11.723C135.625,60.012,135.437,60.509,135.009,60.715z M129.338,50.255l-3.281,6.989c0.906-0.512,2.102-0.974,3.057-1.162
		c0.922-0.205,1.864-0.238,2.802-0.153L129.338,50.255z"/>
	<path fill="#BB9631" d="M145.952,60.763c-0.392,0-0.751-0.29-0.838-0.701c-0.206-1.041-0.528-1.879-0.975-2.512
		c-0.324-0.479-0.734-0.82-1.197-1.042c-0.357-0.188-0.716-0.257-0.99-0.274c-0.219,0-0.459,0.018-0.699,0.018
		c-0.428,0-0.804-0.341-0.837-0.787c-0.052-0.427,0.255-0.838,0.682-0.905c0.068-0.017,0.394-0.085,0.871-0.052
		c0.889-0.051,1.589-0.239,2.103-0.53c0.751-0.427,1.11-1.094,1.11-2.101c0-0.685-0.136-1.247-0.377-1.693
		c-0.188-0.324-0.459-0.582-0.786-0.786c-0.615-0.342-1.247-0.357-1.298-0.357h-4.221v10.865c0,0.463-0.375,0.854-0.854,0.854
		c-0.46,0-0.855-0.391-0.855-0.854V48.184c0-0.477,0.394-0.855,0.855-0.855h5.074c0.068,0,0.479,0,1.007,0.136
		c0.753,0.189,1.419,0.548,1.931,1.061c0.376,0.377,0.682,0.836,0.889,1.366c0.223,0.581,0.341,1.246,0.341,1.982
		c0,1.605-0.683,2.854-1.966,3.588c-0.084,0.052-0.17,0.087-0.271,0.137c0.308,0.258,0.581,0.548,0.836,0.889
		c0.617,0.838,1.042,1.931,1.3,3.248c0.084,0.461-0.208,0.922-0.667,1.008C146.055,60.748,146.004,60.763,145.952,60.763z"/>
	<path fill="#BB9631" d="M160.157,60.715c-0.392,0.17-0.906,0.033-1.145-0.43l-1.179-2.63c-1.112-0.273-2.222-0.291-3.299-0.053
		c-0.87,0.172-1.725,0.497-2.563,1.01c-0.854,0.53-1.742,1.229-2.391,1.862c-0.326,0.324-0.751,0.427-1.11,0.205
		c-0.377-0.239-0.326-0.719-0.153-1.111l5.399-11.723c0.152-0.308,0.444-0.494,0.787-0.494c0.324,0,0.649,0.204,0.77,0.494
		l5.312,11.723C160.771,60.012,160.583,60.509,160.157,60.715z M154.485,50.255l-3.282,6.989c0.907-0.512,2.102-0.974,3.058-1.162
		c0.921-0.205,1.863-0.238,2.802-0.153L154.485,50.255z"/>
	<path fill="#BB9631" d="M172.705,57.364c-0.169,2.119-1.759,3.418-4.031,3.418h-5.878c-0.221,0-0.445-0.086-0.599-0.239
		c-0.152-0.171-0.256-0.377-0.256-0.616V48.206c0-0.479,0.394-0.854,0.855-0.854h5.059c2.236,0,3.792,1.008,4.083,3.074
		c0.22,1.605-0.462,2.598-1.266,3.179C171.801,53.999,172.861,55.434,172.705,57.364z M170.998,57.211
		c0.171-1.675-0.751-2.494-2.426-2.494h-0.05l-1.333,0.017h-0.02c-0.46,0-0.836-0.394-0.854-0.855c0-0.479,0.392-0.854,0.854-0.854
		l1.3-0.018c1.265-0.136,1.93-0.991,1.777-2.374c-0.136-1.111-0.941-1.574-2.392-1.574h-4.205v9.997h5.024
		C170.059,59.055,170.878,58.473,170.998,57.211z"/>
	<path fill="#BB9631" d="M175.037,60.782c-0.462,0-0.855-0.376-0.855-0.855V48.206c0-0.463,0.392-0.854,0.855-0.854
		c0.479,0,0.854,0.392,0.854,0.854v11.721C175.891,60.406,175.515,60.782,175.037,60.782z"/>
	<path fill="#BB9631" d="M189.237,60.715c-0.392,0.17-0.906,0.033-1.145-0.43l-1.179-2.63c-1.111-0.273-2.223-0.291-3.299-0.053
		c-0.87,0.172-1.725,0.497-2.562,1.01c-0.854,0.53-1.742,1.229-2.392,1.862c-0.325,0.324-0.751,0.427-1.11,0.205
		c-0.377-0.239-0.325-0.719-0.153-1.111l5.398-11.723c0.153-0.308,0.445-0.494,0.788-0.494c0.324,0,0.649,0.204,0.77,0.494
		l5.312,11.723C189.851,60.012,189.664,60.509,189.237,60.715z M183.564,50.255l-3.281,6.989c0.906-0.512,2.102-0.974,3.058-1.162
		c0.921-0.205,1.863-0.238,2.802-0.153L183.564,50.255z"/>
	<path fill="#BB9631" d="M201.975,60.715c-0.343,0.101-0.77,0.051-0.992-0.224l-8.253-9.926v9.361c0,0.479-0.377,0.855-0.856,0.855
		c-0.479,0-0.854-0.376-0.854-0.855V48.206c0-0.36,0.223-0.686,0.563-0.804c0.341-0.119,0.718-0.017,0.939,0.258l8.271,9.909V48.19
		c0-0.479,0.375-0.855,0.854-0.855c0.462,0,0.854,0.376,0.854,0.855v11.754C202.502,60.303,202.332,60.609,201.975,60.715z"/>
	<path fill="#BB9631" d="M220.985,48.206v11.721c0,0.462-0.377,0.855-0.855,0.855c-0.46,0-0.854-0.394-0.854-0.855v-5.16h-7.365
		v5.16c0,0.462-0.375,0.855-0.856,0.855c-0.479,0-0.854-0.394-0.854-0.855V48.206c0-0.479,0.375-0.854,0.854-0.854
		c0.48,0,0.856,0.375,0.856,0.854v4.852h7.365v-4.852c0-0.479,0.392-0.854,0.854-0.854
		C220.608,47.352,220.985,47.726,220.985,48.206z"/>
	<path fill="#BB9631" d="M229.294,61.073c-0.938,0-1.862-0.188-2.733-0.564c-0.836-0.359-1.589-0.854-2.237-1.505
		c-0.633-0.649-1.145-1.382-1.504-2.221c-0.358-0.854-0.548-1.76-0.548-2.683c0-0.94,0.189-1.845,0.564-2.699
		c0.359-0.821,0.872-1.573,1.521-2.204c0.649-0.649,1.4-1.146,2.237-1.505c0.871-0.358,1.796-0.547,2.752-0.547
		c1.863,0,3.604,0.734,4.903,2.067c0.631,0.633,1.109,1.384,1.454,2.204c0.358,0.854,0.53,1.76,0.53,2.683
		c0,0.939-0.172,1.845-0.53,2.681c-0.342,0.839-0.838,1.592-1.47,2.223C232.917,60.336,231.172,61.073,229.294,61.073z
		 M229.346,48.855c-0.718,0-1.418,0.136-2.084,0.41c-0.649,0.272-1.214,0.649-1.708,1.145c-0.497,0.478-0.889,1.042-1.146,1.674
		c-0.29,0.634-0.427,1.314-0.427,2.017c0,0.7,0.138,1.365,0.411,2.015c0.272,0.634,0.648,1.197,1.145,1.676
		c1.007,1.009,2.341,1.572,3.759,1.572c1.419,0,2.733-0.565,3.727-1.555c0.478-0.478,0.838-1.041,1.108-1.673
		c0.258-0.649,0.392-1.335,0.392-2.034c0-1.399-0.527-2.718-1.484-3.689C232.061,49.402,230.745,48.855,229.346,48.855z"/>
	<path fill="#BB9631" d="M242.544,61.054c-0.443,0-0.904-0.034-1.349-0.103c-0.821-0.138-1.589-0.377-2.188-0.718
		c-0.75-0.394-1.247-0.923-1.452-1.504c-0.207-0.599,0.428-1.352,1.04-1.042c0.155,0.085,0.258,0.238,0.361,0.376
		c0.615,0.751,1.572,1.075,2.494,1.229c0.785,0.119,1.588,0.102,2.237-0.034c0.803-0.172,1.574-0.582,1.879-1.367
		c0.152-0.393,0.188-0.838,0.052-1.231c-0.394-1.16-1.846-1.587-3.076-1.845c-0.821-0.171-1.64-0.375-2.409-0.699
		c-0.818-0.325-1.639-0.821-2.101-1.607c-0.564-0.938-0.462-2.425-0.12-3.126c1.042-2.084,3.057-2.323,4.236-2.323
		c0.89,0,1.812,0.152,2.546,0.443c0.94,0.358,1.676,0.976,1.898,1.622c0.102,0.274,0.033,0.582-0.153,0.805
		c-0.206,0.256-0.582,0.375-0.89,0.205c-0.086-0.051-0.152-0.138-0.237-0.205c-0.343-0.376-0.857-0.734-1.487-0.974
		c-0.53-0.206-1.11-0.223-1.677-0.223c-1.331,0-2.854,0.512-2.854,2.067c0,1.436,1.249,1.862,4.102,2.562
		c3.656,0.889,4.136,2.905,3.792,4.613C246.68,60.525,243.672,61.054,242.544,61.054z"/>
	<path fill="#BB9631" d="M249.522,60.782c-0.46,0-0.855-0.376-0.855-0.855V48.206c0-0.479,0.395-0.854,0.855-0.854h5.074
		c0.068,0,0.479,0,1.008,0.136c0.753,0.188,1.419,0.563,1.929,1.061c0.378,0.375,0.684,0.838,0.89,1.366
		c0.223,0.58,0.341,1.246,0.341,1.98c0,1.624-0.682,2.854-1.964,3.59c-0.922,0.528-2.152,0.785-3.674,0.785
		c-0.462,0-0.854-0.378-0.854-0.855c0-0.479,0.391-0.854,0.854-0.854c1.215,0,2.17-0.188,2.82-0.565
		c0.75-0.427,1.109-1.094,1.109-2.102c0-0.682-0.137-1.247-0.377-1.674c-0.187-0.343-0.46-0.597-0.785-0.785
		c-0.616-0.358-1.246-0.377-1.298-0.377h-4.221v10.868C250.376,60.406,250.001,60.782,249.522,60.782z"/>
	<path fill="#BB9631" d="M261.08,60.782c-0.463,0-0.854-0.376-0.854-0.855V48.206c0-0.463,0.391-0.854,0.854-0.854
		c0.478,0,0.855,0.392,0.855,0.854v11.721C261.934,60.406,261.557,60.782,261.08,60.782z"/>
	<path fill="#BB9631" d="M274.306,48.206c0,0.478-0.375,0.854-0.854,0.854h-3.742v10.867c0,0.479-0.392,0.855-0.855,0.855
		c-0.479,0-0.854-0.376-0.854-0.855V49.059h-3.76c-0.479,0-0.854-0.376-0.854-0.854c0-0.479,0.375-0.854,0.854-0.854h9.211
		C273.931,47.352,274.306,47.726,274.306,48.206z"/>
	<path fill="#BB9631" d="M284.835,60.715c-0.392,0.17-0.906,0.033-1.145-0.43l-1.179-2.63c-1.11-0.273-2.223-0.291-3.298-0.053
		c-0.871,0.172-1.724,0.497-2.562,1.01c-0.855,0.53-1.744,1.229-2.394,1.862c-0.324,0.324-0.749,0.427-1.109,0.205
		c-0.378-0.239-0.326-0.719-0.153-1.111l5.398-11.723c0.153-0.308,0.444-0.494,0.786-0.494c0.325,0,0.649,0.204,0.771,0.494
		l5.312,11.723C285.452,60.012,285.264,60.509,284.835,60.715z M279.164,50.255l-3.281,6.989c0.906-0.512,2.102-0.974,3.058-1.162
		c0.922-0.205,1.863-0.238,2.802-0.153L279.164,50.255z"/>
	<path fill="#BB9631" d="M294.924,60.782h-7.45c-0.46,0-0.855-0.376-0.855-0.855V48.206c0-0.479,0.395-0.854,0.855-0.854
		c0.479,0,0.854,0.375,0.854,0.854v10.866h6.597c0.479,0,0.855,0.376,0.855,0.854C295.781,60.406,295.402,60.782,294.924,60.782z"/>
	<path fill="#BB9631" d="M298.091,60.782c-0.461,0-0.855-0.376-0.855-0.855V48.206c0-0.463,0.392-0.854,0.855-0.854
		c0.479,0,0.854,0.392,0.854,0.854v11.721C298.946,60.406,298.571,60.782,298.091,60.782z"/>
	<path fill="#BB9631" d="M311.319,48.206c0,0.478-0.378,0.854-0.856,0.854h-3.741v10.867c0,0.479-0.394,0.855-0.855,0.855
		c-0.479,0-0.855-0.376-0.855-0.855V49.059h-3.76c-0.478,0-0.854-0.376-0.854-0.854c0-0.479,0.376-0.854,0.854-0.854h9.211
		C310.943,47.352,311.319,47.726,311.319,48.206z"/>
	<path fill="#BB9631" d="M323.439,48.683l-4.459,6.663v4.579c0,0.461-0.377,0.855-0.855,0.855c-0.462,0-0.854-0.395-0.854-0.855
		v-4.579l-4.442-6.663c-0.257-0.394-0.154-0.923,0.237-1.196c0.395-0.256,0.925-0.153,1.18,0.239l3.88,5.827l3.896-5.827
		c0.256-0.393,0.785-0.495,1.179-0.239C323.592,47.76,323.695,48.29,323.439,48.683z"/>
	<path fill="#BB9631" d="M325.802,62.695c-0.479,0-0.855-0.376-0.855-0.854v-2.837c0-0.477,0.376-0.855,0.855-0.855
		c0.461,0,0.854,0.377,0.854,0.855v2.837C326.656,62.319,326.263,62.695,325.802,62.695z"/>
	<path fill="#BB9631" d="M341.375,61.004c-0.957,0-1.879-0.189-2.751-0.564c-0.82-0.36-1.574-0.854-2.224-1.504
		c-0.649-0.634-1.145-1.385-1.504-2.223c-0.376-0.854-0.547-1.758-0.547-2.683c0-0.94,0.188-1.844,0.547-2.698
		c0.359-0.821,0.871-1.574,1.52-2.206c0.649-0.648,1.42-1.143,2.255-1.502c0.873-0.359,1.796-0.547,2.734-0.547
		c1.538,0,2.975,0.479,4.171,1.4c0.375,0.29,0.444,0.82,0.172,1.195c-0.291,0.376-0.839,0.443-1.198,0.172
		c-0.905-0.702-1.981-1.061-3.145-1.061c-0.717,0-1.416,0.136-2.085,0.41c-0.629,0.272-1.213,0.65-1.706,1.144
		c-0.48,0.479-0.871,1.042-1.146,1.674c-0.271,0.634-0.41,1.316-0.41,2.018s0.14,1.366,0.41,2.017
		c0.273,0.633,0.649,1.196,1.146,1.673c1.008,1.01,2.341,1.574,3.759,1.574c0.63,0,1.229-0.12,1.811-0.326
		c0.564-0.204,1.076-0.512,1.537-0.89c0.358-0.308,0.889-0.255,1.196,0.104c0.309,0.358,0.257,0.904-0.102,1.194
		c-0.616,0.514-1.298,0.906-2.034,1.18C343.015,60.849,342.194,61.004,341.375,61.004z"/>
	<path fill="#BB9631" d="M354.435,61.073c-0.938,0-1.861-0.188-2.733-0.564c-0.837-0.359-1.59-0.854-2.238-1.505
		c-0.632-0.649-1.145-1.382-1.504-2.221c-0.358-0.854-0.546-1.76-0.546-2.683c0-0.94,0.188-1.845,0.562-2.699
		c0.36-0.821,0.871-1.573,1.521-2.204c0.651-0.649,1.4-1.146,2.238-1.505c0.87-0.358,1.796-0.547,2.752-0.547
		c1.862,0,3.606,0.734,4.902,2.067c0.632,0.633,1.11,1.384,1.454,2.204c0.359,0.854,0.529,1.76,0.529,2.683
		c0,0.939-0.17,1.845-0.529,2.681c-0.343,0.839-0.838,1.592-1.469,2.223C358.058,60.336,356.315,61.073,354.435,61.073z
		 M354.487,48.855c-0.719,0-1.418,0.136-2.084,0.41c-0.65,0.272-1.215,0.649-1.709,1.145c-0.495,0.478-0.89,1.042-1.145,1.674
		c-0.291,0.634-0.429,1.314-0.429,2.017c0,0.7,0.138,1.365,0.41,2.015c0.272,0.634,0.647,1.197,1.146,1.676
		c1.009,1.009,2.341,1.572,3.759,1.572c1.419,0,2.733-0.565,3.726-1.555c0.479-0.478,0.838-1.041,1.108-1.673
		c0.258-0.649,0.395-1.335,0.395-2.034c0-1.399-0.53-2.718-1.487-3.689C357.203,49.402,355.886,48.855,354.487,48.855z"/>
	<path fill="#BB9631" d="M375.05,60.782c-0.462,0-0.87-0.394-0.87-0.855v-8.628l-4.204,7.056c-0.153,0.224-0.409,0.343-0.684,0.343
		c-0.271,0-0.529-0.119-0.699-0.343l-4.222-7.056v8.628c0,0.462-0.375,0.855-0.854,0.855c-0.46,0-0.855-0.394-0.855-0.855V48.173
		c0-0.377,0.24-0.701,0.6-0.82c0.341-0.119,0.735,0.017,0.957,0.308l5.074,8.561l5.059-8.561c0.238-0.291,0.616-0.427,0.976-0.308
		c0.341,0.119,0.58,0.443,0.58,0.82v11.754C375.903,60.388,375.527,60.782,375.05,60.782z"/>
	<path fill="#BB9631" d="M387.019,48.206c0,0.478-0.378,0.854-0.855,0.854h-7.176v4.29h6.134c0.463,0,0.854,0.392,0.854,0.854
		c0,0.479-0.391,0.854-0.854,0.854h-6.134v4.869c0,0.462-0.377,0.855-0.855,0.855s-0.854-0.394-0.854-0.855V48.206
		c0-0.463,0.376-0.854,0.854-0.854h8.031C386.641,47.352,387.019,47.745,387.019,48.206z"/>
	<path fill="#BB9631" d="M394.303,61.073c-0.939,0-1.863-0.188-2.735-0.564c-0.837-0.359-1.588-0.854-2.235-1.505
		c-0.633-0.649-1.146-1.382-1.506-2.221c-0.358-0.854-0.547-1.76-0.547-2.683c0-0.94,0.188-1.845,0.564-2.699
		c0.359-0.821,0.871-1.573,1.521-2.204c0.649-0.649,1.4-1.146,2.237-1.505c0.871-0.358,1.795-0.547,2.751-0.547
		c1.864,0,3.606,0.734,4.904,2.067c0.632,0.633,1.11,1.384,1.452,2.204c0.359,0.854,0.53,1.76,0.53,2.683
		c0,0.939-0.171,1.845-0.53,2.681c-0.341,0.839-0.838,1.592-1.468,2.223C397.926,60.336,396.182,61.073,394.303,61.073z
		 M394.353,48.855c-0.718,0-1.416,0.136-2.084,0.41c-0.649,0.272-1.214,0.649-1.708,1.145c-0.496,0.478-0.888,1.042-1.146,1.674
		c-0.291,0.634-0.427,1.314-0.427,2.017c0,0.7,0.136,1.365,0.41,2.015c0.272,0.634,0.648,1.197,1.146,1.676
		c1.007,1.009,2.342,1.572,3.759,1.572c1.418,0,2.733-0.565,3.724-1.555c0.479-0.478,0.838-1.041,1.111-1.673
		c0.256-0.649,0.393-1.335,0.393-2.034c0-1.399-0.53-2.718-1.487-3.689C397.071,49.402,395.755,48.855,394.353,48.855z"/>
	<path fill="#BB9631" d="M411.686,60.763c-0.391,0-0.749-0.29-0.837-0.701c-0.204-1.041-0.529-1.879-0.974-2.512
		c-0.326-0.479-0.735-0.82-1.194-1.042c-0.36-0.188-0.719-0.257-0.993-0.274c-0.221,0-0.46,0.018-0.699,0.018
		c-0.427,0-0.804-0.341-0.838-0.787c-0.051-0.427,0.256-0.838,0.683-0.905c0.069-0.017,0.393-0.085,0.87-0.052
		c0.89-0.051,1.59-0.239,2.104-0.53c0.75-0.427,1.108-1.094,1.108-2.101c0-0.685-0.136-1.247-0.375-1.693
		c-0.188-0.324-0.46-0.582-0.786-0.786c-0.617-0.342-1.246-0.357-1.299-0.357h-4.22v10.865c0,0.463-0.378,0.854-0.855,0.854
		c-0.46,0-0.854-0.391-0.854-0.854V48.184c0-0.477,0.393-0.855,0.854-0.855h5.074c0.068,0,0.479,0,1.007,0.136
		c0.754,0.189,1.42,0.548,1.931,1.061c0.377,0.377,0.684,0.836,0.89,1.366c0.221,0.581,0.341,1.246,0.341,1.982
		c0,1.605-0.682,2.854-1.966,3.588c-0.084,0.052-0.17,0.087-0.272,0.137c0.31,0.258,0.58,0.548,0.838,0.889
		c0.616,0.838,1.043,1.931,1.298,3.248c0.087,0.461-0.205,0.922-0.666,1.008C411.791,60.748,411.738,60.763,411.686,60.763z"/>
	<path fill="#BB9631" d="M424.918,48.206c0,0.478-0.376,0.854-0.854,0.854h-3.742v10.867c0,0.479-0.394,0.855-0.856,0.855
		c-0.479,0-0.854-0.376-0.854-0.855V49.059h-3.76c-0.479,0-0.856-0.376-0.856-0.854c0-0.479,0.378-0.854,0.856-0.854h9.211
		C424.543,47.352,424.918,47.726,424.918,48.206z"/>
	<path fill="#BB9631" d="M427.146,62.695c-0.478,0-0.855-0.376-0.855-0.854v-2.837c0-0.477,0.378-0.855,0.855-0.855
		c0.463,0,0.854,0.377,0.854,0.855v2.837C428,62.319,427.609,62.695,427.146,62.695z"/>
	<path fill="#BB9631" d="M447.586,60.715c-0.391,0.17-0.905,0.033-1.145-0.43l-1.178-2.63c-1.112-0.273-2.223-0.291-3.299-0.053
		c-0.87,0.172-1.726,0.497-2.563,1.01c-0.854,0.53-1.741,1.229-2.391,1.862c-0.324,0.324-0.752,0.427-1.11,0.205
		c-0.377-0.239-0.326-0.719-0.153-1.111l5.399-11.723c0.151-0.308,0.444-0.494,0.786-0.494c0.324,0,0.649,0.204,0.77,0.494
		l5.312,11.723C448.201,60.012,448.012,60.509,447.586,60.715z M441.915,50.255l-3.282,6.989c0.906-0.512,2.103-0.974,3.058-1.162
		c0.921-0.205,1.863-0.238,2.802-0.153L441.915,50.255z"/>
	<path fill="#BB9631" d="M460.325,60.715c-0.343,0.101-0.77,0.051-0.992-0.224l-8.253-9.926v9.361c0,0.479-0.375,0.855-0.854,0.855
		c-0.478,0-0.855-0.376-0.855-0.855V48.206c0-0.36,0.223-0.686,0.564-0.804c0.34-0.119,0.717-0.017,0.939,0.258l8.27,9.909V48.19
		c0-0.479,0.375-0.855,0.854-0.855c0.462,0,0.855,0.376,0.855,0.855v11.754C460.854,60.303,460.682,60.609,460.325,60.715z"/>
	<path fill="#BB9631" d="M466.977,60.782h-0.017h-3.86c-0.498,0-0.872-0.394-0.872-0.855V48.206c0-0.223,0.085-0.445,0.255-0.599
		c0.154-0.154,0.395-0.256,0.618-0.256h3.91c0.939,0,1.848,0.187,2.684,0.528c0.82,0.343,1.573,0.839,2.223,1.453
		c0.632,0.615,1.127,1.334,1.486,2.152c0.358,0.838,0.546,1.709,0.546,2.615c0,0.889-0.188,1.743-0.562,2.562
		c-0.36,0.804-0.855,1.521-1.506,2.137c-0.648,0.634-1.399,1.11-2.221,1.453C468.806,60.594,467.899,60.782,466.977,60.782z
		 M463.953,59.055h3.057c0.702-0.018,1.366-0.154,2-0.41c0.632-0.257,1.196-0.616,1.673-1.077c0.479-0.461,0.856-1.008,1.146-1.605
		c0.273-0.597,0.409-1.214,0.409-1.862c0-0.666-0.136-1.314-0.409-1.93c-0.272-0.599-0.648-1.146-1.126-1.605
		c-0.993-0.976-2.291-1.506-3.693-1.506h-3.057V59.055z"/>
	<path fill="#BB9631" d="M489.951,60.782h-7.449c-0.46,0-0.854-0.376-0.854-0.855V48.206c0-0.479,0.392-0.854,0.854-0.854
		c0.479,0,0.855,0.375,0.855,0.854v10.866h6.597c0.478,0,0.854,0.376,0.854,0.854C490.809,60.406,490.431,60.782,489.951,60.782z"/>
	<path fill="#BB9631" d="M496.296,60.987c-1.247,0-2.325-0.256-3.194-0.77c-0.753-0.427-1.334-1.024-1.76-1.794
		c-0.701-1.298-0.701-2.648-0.701-3.092v-7.126c0-0.463,0.394-0.854,0.856-0.854c0.478,0,0.853,0.392,0.853,0.854v7.124
		c0,0.342,0,1.366,0.497,2.271c0.273,0.497,0.632,0.872,1.111,1.146c0.598,0.341,1.383,0.529,2.341,0.529
		c0.957,0,1.743-0.188,2.341-0.529c0.462-0.274,0.838-0.649,1.095-1.129c0.496-0.922,0.496-1.947,0.496-2.289v-7.124
		c0-0.463,0.392-0.854,0.854-0.854c0.479,0,0.855,0.392,0.855,0.854v7.124c0,0.443,0,1.811-0.7,3.092
		C500.601,59.602,499.235,60.987,496.296,60.987z"/>
	<path fill="#BB9631" d="M513.356,60.628c-0.394,0.257-0.906,0.188-1.196-0.188l-3.641-5.058l-3.655,5.058
		c-0.291,0.375-0.803,0.444-1.197,0.188c-0.392-0.272-0.478-0.802-0.187-1.194l3.981-5.52L503.7,48.72
		c-0.291-0.395-0.205-0.923,0.188-1.199c0.376-0.271,0.906-0.187,1.196,0.189l3.434,4.751l3.416-4.751
		c0.274-0.376,0.804-0.461,1.197-0.189c0.377,0.274,0.462,0.805,0.188,1.199l-3.76,5.193l3.983,5.52
		C513.817,59.825,513.73,60.355,513.356,60.628z"/>
	<path fill="#BB9631" d="M520.724,60.987c-1.246,0-2.322-0.256-3.194-0.77c-0.752-0.427-1.333-1.024-1.759-1.794
		c-0.7-1.298-0.7-2.648-0.7-3.092v-7.126c0-0.463,0.392-0.854,0.854-0.854c0.478,0,0.855,0.392,0.855,0.854v7.124
		c0,0.342,0,1.366,0.497,2.271c0.271,0.497,0.631,0.872,1.109,1.146c0.598,0.341,1.385,0.529,2.341,0.529s1.742-0.188,2.343-0.529
		c0.459-0.274,0.836-0.649,1.093-1.129c0.495-0.922,0.495-1.947,0.495-2.289v-7.124c0-0.463,0.394-0.854,0.855-0.854
		c0.479,0,0.855,0.392,0.855,0.854v7.124c0,0.443,0,1.811-0.7,3.092C525.032,59.602,523.665,60.987,520.724,60.987z"/>
	<path fill="#BB9631" d="M536.895,60.763c-0.392,0-0.75-0.29-0.837-0.701c-0.205-1.041-0.53-1.879-0.975-2.512
		c-0.325-0.479-0.734-0.82-1.194-1.042c-0.36-0.188-0.719-0.257-0.993-0.274c-0.22,0-0.46,0.018-0.699,0.018
		c-0.427,0-0.804-0.341-0.838-0.787c-0.051-0.427,0.256-0.838,0.683-0.905c0.069-0.017,0.394-0.085,0.87-0.052
		c0.89-0.051,1.59-0.239,2.104-0.53c0.75-0.427,1.108-1.094,1.108-2.101c0-0.685-0.136-1.247-0.375-1.693
		c-0.188-0.324-0.46-0.582-0.785-0.786c-0.617-0.342-1.247-0.357-1.299-0.357h-4.221v10.865c0,0.463-0.378,0.854-0.855,0.854
		c-0.46,0-0.854-0.391-0.854-0.854V48.184c0-0.477,0.394-0.855,0.854-0.855h5.074c0.068,0,0.479,0,1.009,0.136
		c0.752,0.189,1.418,0.548,1.929,1.061c0.377,0.377,0.684,0.836,0.89,1.366c0.221,0.581,0.341,1.246,0.341,1.982
		c0,1.605-0.682,2.854-1.965,3.588c-0.085,0.052-0.171,0.087-0.273,0.137c0.31,0.258,0.58,0.548,0.838,0.889
		c0.616,0.838,1.043,1.931,1.298,3.248c0.087,0.461-0.205,0.922-0.666,1.008C536.998,60.748,536.947,60.763,536.895,60.763z"/>
	<path fill="#BB9631" d="M549.954,48.683l-4.458,6.663v4.579c0,0.461-0.377,0.855-0.854,0.855c-0.463,0-0.854-0.395-0.854-0.855
		v-4.579l-4.442-6.663c-0.259-0.394-0.154-0.923,0.237-1.196c0.393-0.256,0.923-0.153,1.18,0.239l3.88,5.827l3.896-5.827
		c0.255-0.393,0.785-0.495,1.177-0.239C550.11,47.76,550.212,48.29,549.954,48.683z"/>
	<path fill="#BB9631" d="M554.013,59.5c0,0.717-0.564,1.281-1.265,1.281c-0.719,0-1.281-0.564-1.281-1.281
		c0-0.702,0.562-1.28,1.281-1.28C553.448,58.219,554.013,58.798,554.013,59.5z"/>
</g>
<path fill="#BB9631" d="M159.867,14.819c-4.536,0-5.238,2.188-1.569,4.886c3.672,2.694,6.647,4.884,6.647,4.884l-2.543,7.884
	c-1.399,4.338,0.442,5.693,4.113,3.021c3.669-2.674,6.647-4.836,6.647-4.836l6.647,4.815c3.671,2.66,5.514,1.307,4.109-3.033
	c-1.404-4.331-2.539-7.844-2.539-7.844l6.646-4.892c3.676-2.698,2.969-4.887-1.567-4.887c-4.538,0-8.218,0-8.218,0l-2.538-7.815
	c-1.405-4.313-3.677-4.313-5.081,0c-1.404,4.314-2.539,7.815-2.539,7.815L159.867,14.819L159.867,14.819z"/>
<path fill="#BB9631" d="M211.917,7.004c-1.403,4.314-2.539,7.815-2.539,7.815h-8.217c-4.536,0-5.238,2.188-1.569,4.886
	c3.672,2.694,6.648,4.884,6.648,4.884l-2.543,7.884c-1.399,4.338,0.442,5.693,4.114,3.021c3.668-2.674,6.647-4.836,6.647-4.836
	l6.647,4.815c3.67,2.66,5.513,1.307,4.107-3.033c-1.402-4.331-2.538-7.844-2.538-7.844l6.646-4.892
	c3.677-2.698,2.97-4.887-1.567-4.887c-4.539,0-8.218,0-8.218,0l-2.538-7.815C215.592,2.689,213.321,2.689,211.917,7.004z"/>
<path fill="#BB9631" d="M253.207,7.004c-1.402,4.314-2.539,7.815-2.539,7.815h-8.219c-4.533,0-5.236,2.188-1.564,4.886
	c3.67,2.694,6.646,4.884,6.646,4.884l-2.541,7.884c-1.401,4.338,0.439,5.693,4.113,3.021c3.67-2.674,6.646-4.836,6.646-4.836
	l6.645,4.815c3.674,2.66,5.519,1.307,4.115-3.033c-1.404-4.331-2.541-7.844-2.541-7.844l6.645-4.892
	c3.681-2.698,2.97-4.887-1.563-4.887c-4.541,0-8.219,0-8.219,0l-2.539-7.815C256.887,2.689,254.611,2.689,253.207,7.004z"/>
<path fill="#BB9631" d="M294.5,7.004c-1.402,4.314-2.539,7.815-2.539,7.815h-8.219c-4.533,0-5.234,2.188-1.564,4.886
	c3.67,2.694,6.645,4.884,6.645,4.884l-2.538,7.884c-1.404,4.338,0.438,5.693,4.112,3.021c3.668-2.674,6.646-4.836,6.646-4.836
	l6.645,4.815c3.674,2.66,5.519,1.307,4.115-3.033c-1.404-4.331-2.543-7.844-2.543-7.844l6.646-4.892
	c3.679-2.698,2.97-4.887-1.563-4.887c-4.541,0-8.219,0-8.219,0l-2.539-7.815C298.18,2.689,295.904,2.689,294.5,7.004z"/>
</svg>
