<?xml version="1.0" encoding="utf-8"?>
<!-- Generator: Adobe Illustrator 16.0.0, SVG Export Plug-In . SVG Version: 6.00 Build 0)  -->
<!DOCTYPE svg PUBLIC "-//W3C//DTD SVG 1.1//EN" "http://www.w3.org/Graphics/SVG/1.1/DTD/svg11.dtd">
<svg version="1.1" id="Layer_1" xmlns="http://www.w3.org/2000/svg" xmlns:xlink="http://www.w3.org/1999/xlink" x="0px" y="0px"
	 width="97.701px" height="77.118px" viewBox="0 0 97.701 77.118" enable-background="new 0 0 97.701 77.118" xml:space="preserve">
<g>
	<path fill="#FFFFFF" d="M17.244,52.006h-3.762v3.008c0,0.283,0.011,0.463,0.035,0.542c0.023,0.078,0.066,0.143,0.13,0.196
		c0.063,0.053,0.174,0.079,0.333,0.079v0.08h-1.772v-0.08c0.322,0.025,0.483-0.154,0.483-0.536v-6.292
		c0-0.357-0.025-0.584-0.076-0.68c-0.051-0.095-0.187-0.148-0.407-0.16v-0.079h1.772v0.079c-0.196,0.015-0.327,0.058-0.396,0.128
		c-0.068,0.071-0.102,0.216-0.102,0.436v3.061h3.762v-2.801c0-0.319-0.024-0.535-0.072-0.65c-0.048-0.115-0.182-0.173-0.403-0.173
		v-0.079h1.749v0.079c-0.138,0-0.241,0.019-0.309,0.056s-0.114,0.095-0.138,0.173s-0.037,0.276-0.037,0.594v6.005
		c0,0.308,0.013,0.5,0.037,0.576c0.024,0.076,0.067,0.139,0.129,0.189c0.062,0.049,0.167,0.074,0.318,0.074v0.08h-1.749v-0.08
		c0.189,0,0.316-0.044,0.379-0.132s0.095-0.327,0.095-0.716V52.006z"/>
	<path fill="#FFFFFF" d="M23.047,47.968c0.961,0,1.747,0.334,2.358,1.002c0.611,0.667,0.916,1.5,0.916,2.5
		c0,1.286-0.354,2.368-1.061,3.246c-0.707,0.879-1.645,1.318-2.813,1.318c-0.949,0-1.725-0.354-2.33-1.062
		c-0.604-0.708-0.907-1.559-0.907-2.55c0-0.669,0.146-1.357,0.438-2.062c0.292-0.705,0.73-1.28,1.316-1.724
		S22.245,47.968,23.047,47.968 M23.02,55.619c0.471,0,0.936-0.145,1.395-0.434c0.459-0.288,0.82-0.686,1.083-1.192
		c0.264-0.507,0.396-1.027,0.396-1.562c0-0.757-0.177-1.446-0.533-2.066c-0.355-0.62-0.815-1.105-1.381-1.456
		c-0.565-0.351-1.089-0.526-1.569-0.526c-0.679,0-1.295,0.292-1.849,0.876c-0.554,0.584-0.83,1.311-0.83,2.179
		c0,1.109,0.337,2.083,1.014,2.922C21.421,55.199,22.18,55.619,23.02,55.619"/>
	<path fill="#FFFFFF" d="M32.275,47.814L31.95,48.76h-0.07c0.012-0.057,0.019-0.133,0.019-0.229c0-0.082-0.025-0.133-0.077-0.157
		c-0.051-0.023-0.132-0.035-0.244-0.035h-1.787v6.695c0,0.277,0.02,0.465,0.058,0.566c0.039,0.101,0.092,0.165,0.158,0.191
		c0.067,0.027,0.174,0.04,0.323,0.04v0.08h-1.855v-0.08c0.232-0.018,0.378-0.069,0.437-0.154s0.088-0.262,0.088-0.531V48.34h-1.712
		c-0.173,0-0.286,0.011-0.339,0.035c-0.052,0.023-0.079,0.081-0.079,0.172c0,0.046,0.012,0.117,0.037,0.213h-0.07l-0.325-0.946h0.07
		c0.055,0.127,0.11,0.204,0.164,0.231c0.055,0.027,0.171,0.04,0.351,0.04h4.545c0.18,0,0.309-0.013,0.388-0.04
		c0.079-0.027,0.137-0.104,0.174-0.231H32.275z"/>
	<path fill="#FFFFFF" d="M32.638,48.175v-0.09h4.307v1.079h-0.07c-0.093-0.4-0.172-0.636-0.235-0.707
		c-0.064-0.071-0.22-0.106-0.467-0.106h-2.261v3.512h2.098c0.208,0,0.339-0.022,0.395-0.067c0.056-0.044,0.085-0.109,0.089-0.194
		h0.069v0.738h-0.069c-0.016-0.103-0.052-0.171-0.109-0.207c-0.058-0.035-0.164-0.053-0.319-0.053h-2.153v2.417
		c0,0.365,0.029,0.628,0.088,0.789c0.059,0.162,0.152,0.262,0.281,0.303c0.128,0.041,0.323,0.062,0.583,0.062h1.208
		c0.384,0,0.629-0.015,0.736-0.045c0.107-0.03,0.198-0.09,0.272-0.179c0.074-0.09,0.131-0.286,0.172-0.589h0.07v1.074h-4.684v-0.08
		c0.158-0.01,0.278-0.045,0.361-0.103c0.082-0.059,0.123-0.21,0.123-0.454v-6.318c0-0.287-0.022-0.488-0.065-0.605
		C33.013,48.234,32.874,48.175,32.638,48.175"/>
	<path fill="#FFFFFF" d="M37.544,55.911v-0.08c0.214,0,0.353-0.046,0.416-0.138c0.064-0.092,0.096-0.25,0.096-0.473v-6.403
		c0-0.226-0.025-0.39-0.075-0.491c-0.049-0.101-0.198-0.155-0.446-0.163v-0.079h1.837v0.079c-0.171,0-0.29,0.025-0.358,0.075
		c-0.068,0.05-0.113,0.107-0.135,0.175c-0.021,0.067-0.032,0.22-0.032,0.458v5.493c0,0.471,0.099,0.803,0.297,0.997
		c0.198,0.193,0.537,0.29,1.017,0.29h0.836c0.402,0,0.697-0.113,0.885-0.34c0.188-0.226,0.292-0.654,0.313-1.28h0.069v1.881H37.544z
		"/>
	<path fill="#FFFFFF" d="M50.762,52.006H47v3.008c0,0.283,0.011,0.463,0.035,0.542c0.023,0.078,0.066,0.143,0.13,0.196
		c0.063,0.053,0.174,0.079,0.332,0.079v0.08h-1.771v-0.08c0.322,0.025,0.483-0.154,0.483-0.536v-6.292
		c0-0.357-0.025-0.584-0.077-0.68c-0.051-0.095-0.187-0.148-0.407-0.16v-0.079h1.771v0.079c-0.195,0.015-0.327,0.058-0.395,0.128
		C47.033,48.363,47,48.508,47,48.728v3.061h3.762v-2.801c0-0.319-0.024-0.535-0.072-0.65s-0.182-0.173-0.402-0.173v-0.079h1.749
		v0.079c-0.138,0-0.241,0.019-0.309,0.056c-0.068,0.037-0.114,0.095-0.138,0.173s-0.037,0.276-0.037,0.594v6.005
		c0,0.308,0.013,0.5,0.037,0.576c0.024,0.076,0.067,0.139,0.129,0.189c0.061,0.049,0.167,0.074,0.318,0.074v0.08h-1.749v-0.08
		c0.189,0,0.316-0.044,0.379-0.132c0.064-0.088,0.096-0.327,0.096-0.716V52.006z"/>
	<path fill="#FFFFFF" d="M56.566,47.968c0.961,0,1.747,0.334,2.358,1.002c0.611,0.667,0.917,1.5,0.917,2.5
		c0,1.286-0.354,2.368-1.061,3.246c-0.707,0.879-1.645,1.318-2.813,1.318c-0.949,0-1.726-0.354-2.33-1.062s-0.907-1.559-0.907-2.55
		c0-0.669,0.146-1.357,0.437-2.062c0.292-0.705,0.73-1.28,1.316-1.724S55.763,47.968,56.566,47.968 M56.539,55.619
		c0.471,0,0.936-0.145,1.395-0.434c0.459-0.288,0.82-0.686,1.084-1.192c0.264-0.507,0.395-1.027,0.395-1.562
		c0-0.757-0.177-1.446-0.532-2.066c-0.355-0.62-0.815-1.105-1.381-1.456c-0.566-0.351-1.089-0.526-1.57-0.526
		c-0.679,0-1.295,0.292-1.849,0.876c-0.553,0.584-0.83,1.311-0.83,2.179c0,1.109,0.338,2.083,1.014,2.922
		C54.94,55.199,55.698,55.619,56.539,55.619"/>
	<path fill="#FFFFFF" d="M60.272,55.911v-0.08c0.214,0,0.353-0.046,0.416-0.138c0.064-0.092,0.096-0.25,0.096-0.473v-6.403
		c0-0.226-0.025-0.39-0.074-0.491c-0.05-0.101-0.199-0.155-0.447-0.163v-0.079H62.1v0.079c-0.17,0-0.29,0.025-0.358,0.075
		c-0.068,0.05-0.113,0.107-0.135,0.175c-0.022,0.067-0.033,0.22-0.033,0.458v5.493c0,0.471,0.099,0.803,0.297,0.997
		c0.198,0.193,0.537,0.29,1.017,0.29h0.836c0.402,0,0.697-0.113,0.885-0.34c0.188-0.226,0.292-0.654,0.313-1.28h0.07v1.881H60.272z"
		/>
	<path fill="#FFFFFF" d="M67.472,48.085v0.079c-0.09-0.01-0.189,0.006-0.3,0.048c-0.11,0.043-0.175,0.104-0.195,0.186
		c-0.02,0.082-0.03,0.275-0.03,0.579v6.005c0,0.326,0.011,0.525,0.034,0.597c0.023,0.073,0.068,0.133,0.135,0.181
		c0.066,0.048,0.185,0.071,0.355,0.071v0.08h-1.828v-0.08c0.229,0,0.372-0.05,0.428-0.151c0.056-0.101,0.084-0.33,0.084-0.688
		v-5.946c0-0.372-0.031-0.615-0.093-0.73s-0.202-0.166-0.418-0.152v-0.079H67.472z"/>
	<path fill="#FFFFFF" d="M68.156,48.164v-0.079H71.3c0.799,0,1.431,0.072,1.895,0.215c0.463,0.144,0.867,0.369,1.211,0.677
		s0.617,0.702,0.818,1.182c0.202,0.48,0.302,1.016,0.302,1.607c0,0.57-0.104,1.131-0.314,1.681
		c-0.209,0.551-0.494,1.025-0.853,1.424c-0.36,0.398-0.739,0.671-1.137,0.818c-0.398,0.147-1.015,0.221-1.849,0.221h-3.218v-0.08
		h0.083c0.167,0,0.277-0.077,0.331-0.23c0.052-0.154,0.079-0.433,0.079-0.836v-5.697c0-0.424-0.032-0.681-0.096-0.77
		S68.357,48.164,68.156,48.164 M70.49,48.25h-1.051v6.073c0,0.382,0.057,0.667,0.17,0.853c0.113,0.186,0.306,0.321,0.579,0.404
		c0.272,0.083,0.64,0.125,1.102,0.125c1.284,0,2.185-0.376,2.705-1.129c0.52-0.752,0.779-1.573,0.779-2.462
		c0-1.045-0.356-1.95-1.068-2.715C72.995,48.632,71.923,48.25,70.49,48.25"/>
	<path fill="#FFFFFF" d="M79.226,52.309h-2.011l-1.037,2.954c-0.071,0.213-0.107,0.344-0.107,0.394c0,0.117,0.076,0.175,0.228,0.175
		v0.08h-1.019v-0.08c0.136,0,0.25-0.038,0.344-0.114c0.093-0.076,0.195-0.274,0.307-0.593l2.483-7.156h0.123l2.443,6.912
		c0,0.036,0.062,0.203,0.188,0.502c0.125,0.3,0.316,0.449,0.573,0.449v0.08h-1.6v-0.08c0.146,0,0.219-0.065,0.219-0.196
		c0-0.088-0.036-0.23-0.107-0.425c-0.013-0.014-0.023-0.037-0.033-0.069c-0.006-0.036-0.011-0.053-0.014-0.053L79.226,52.309z
		 M77.281,52.091h1.853l-0.926-2.667L77.281,52.091z"/>
	<path fill="#FFFFFF" d="M85.442,48.085h1.028v0.079c-0.13,0.011-0.237,0.046-0.321,0.107c-0.083,0.06-0.18,0.184-0.288,0.372
		l-1.674,2.901v3.583c0,0.289,0.033,0.479,0.099,0.569c0.065,0.09,0.208,0.135,0.427,0.135v0.08h-1.833v-0.08
		c0.351,0.025,0.526-0.132,0.526-0.473l-0.01-0.223v-3.308l-1.678-3.175c-0.177-0.337-0.374-0.499-0.591-0.489v-0.079h1.618v0.079
		c-0.15,0-0.226,0.066-0.226,0.197c0,0.067,0.039,0.171,0.116,0.312l1.382,2.605l1.509-2.625c0.028-0.028,0.059-0.081,0.093-0.157
		c0.034-0.076,0.051-0.128,0.051-0.157c0-0.117-0.066-0.176-0.2-0.176h-0.028V48.085z"/>
	<path fill="#FFFFFF" d="M13.957,61.042v0.079c-0.088-0.011-0.187,0.005-0.294,0.046S13.49,61.27,13.47,61.35
		c-0.02,0.08-0.029,0.269-0.029,0.567v5.89c0,0.319,0.011,0.515,0.034,0.586s0.067,0.13,0.132,0.177
		c0.066,0.047,0.182,0.07,0.35,0.07v0.078h-1.793v-0.078c0.225,0,0.365-0.05,0.419-0.149c0.055-0.099,0.083-0.323,0.083-0.674
		v-5.833c0-0.365-0.03-0.603-0.091-0.716c-0.061-0.113-0.198-0.163-0.411-0.148v-0.079H13.957z"/>
	<path fill="#FFFFFF" d="M20.146,61.042h1.3v0.079c-0.198,0.007-0.334,0.054-0.411,0.143c-0.076,0.089-0.114,0.275-0.114,0.56v6.989
		l-5.36-6.521v5.677c0,0.181,0.012,0.314,0.036,0.401c0.024,0.086,0.06,0.146,0.105,0.177c0.045,0.031,0.159,0.062,0.342,0.094
		v0.078h-1.291v-0.078c0.231,0,0.375-0.047,0.432-0.141c0.056-0.094,0.084-0.318,0.084-0.672v-5.192
		c0-0.455-0.056-0.826-0.167-1.115c-0.111-0.288-0.367-0.421-0.769-0.4v-0.079h1.263l5.036,6.126v-5.417
		c0-0.292-0.045-0.47-0.137-0.534c-0.091-0.064-0.208-0.096-0.351-0.096V61.042z"/>
	<path fill="#FFFFFF" d="M27.413,60.776l-0.319,0.928h-0.068c0.012-0.056,0.018-0.13,0.018-0.224c0-0.08-0.025-0.131-0.075-0.154
		c-0.05-0.022-0.129-0.034-0.239-0.034h-1.752v6.567c0,0.271,0.019,0.456,0.057,0.555c0.038,0.099,0.09,0.161,0.155,0.188
		c0.065,0.026,0.171,0.039,0.317,0.039v0.078h-1.82v-0.078c0.228-0.018,0.371-0.068,0.429-0.151
		c0.058-0.083,0.086-0.257,0.086-0.521v-6.676h-1.68c-0.17,0-0.281,0.011-0.332,0.034c-0.052,0.022-0.077,0.079-0.077,0.169
		c0,0.045,0.012,0.115,0.036,0.208h-0.068l-0.319-0.928h0.068c0.054,0.125,0.108,0.201,0.162,0.227
		c0.053,0.026,0.167,0.039,0.344,0.039h4.458c0.176,0,0.303-0.013,0.38-0.039c0.078-0.026,0.134-0.102,0.171-0.227H27.413z"/>
	<path fill="#FFFFFF" d="M27.769,61.131v-0.089h4.224V62.1h-0.068c-0.091-0.393-0.168-0.624-0.23-0.693s-0.215-0.104-0.458-0.104
		h-2.217v3.444h2.058c0.204,0,0.333-0.021,0.388-0.065c0.055-0.043,0.083-0.107,0.087-0.19h0.068v0.724h-0.068
		c-0.016-0.101-0.051-0.168-0.107-0.203s-0.161-0.052-0.312-0.052h-2.112v2.372c0,0.357,0.029,0.615,0.087,0.774
		c0.058,0.158,0.149,0.257,0.276,0.296c0.126,0.041,0.316,0.061,0.571,0.061h1.185c0.376,0,0.617-0.015,0.722-0.044
		c0.105-0.029,0.194-0.088,0.267-0.176c0.073-0.088,0.129-0.281,0.169-0.578h0.068v1.053h-4.593v-0.078
		c0.155-0.011,0.272-0.045,0.354-0.102c0.081-0.058,0.121-0.206,0.121-0.445v-6.198c0-0.281-0.021-0.479-0.064-0.593
		C28.137,61.188,28,61.131,27.769,61.131"/>
	<path fill="#FFFFFF" d="M32.833,61.121v-0.079h1.907c0.483,0,0.833,0.012,1.049,0.037c0.216,0.025,0.437,0.105,0.664,0.242
		c0.227,0.138,0.397,0.324,0.513,0.559c0.116,0.235,0.174,0.522,0.174,0.863c0,0.389-0.103,0.761-0.308,1.113
		c-0.206,0.353-0.495,0.651-0.869,0.895l0.475,0.833c0.104,0.208,0.378,0.665,0.823,1.369c0.445,0.705,0.79,1.134,1.034,1.289
		c0.243,0.154,0.479,0.232,0.707,0.232c0.225,0,0.484-0.099,0.776-0.297l0.027,0.104c-0.365,0.34-0.839,0.511-1.422,0.511
		c-0.389,0-0.723-0.132-1.003-0.395c-0.28-0.263-0.766-0.985-1.459-2.166c-0.006-0.006-0.009-0.013-0.009-0.02l-0.676-1.188
		l-0.599,0.021h-0.544v2.935c0,0.236,0.027,0.405,0.081,0.507c0.054,0.103,0.186,0.154,0.393,0.154v0.078h-1.733v-0.078
		c0.215-0.011,0.35-0.062,0.404-0.156c0.053-0.094,0.08-0.285,0.08-0.573v-6.098c0-0.198-0.023-0.362-0.068-0.492
		C33.202,61.191,33.064,61.124,32.833,61.121 M34.092,61.245v3.602h0.704c0.555,0,0.966-0.149,1.234-0.448s0.402-0.691,0.402-1.178
		c0-0.473-0.132-0.92-0.396-1.342c-0.264-0.422-0.728-0.633-1.392-0.633H34.092z"/>
	<path fill="#FFFFFF" d="M45.386,61.042h1.3v0.079c-0.198,0.007-0.334,0.054-0.411,0.143c-0.076,0.089-0.114,0.275-0.114,0.56v6.989
		l-5.36-6.521v5.677c0,0.181,0.012,0.314,0.037,0.401c0.024,0.086,0.06,0.146,0.105,0.177c0.046,0.031,0.159,0.062,0.342,0.094
		v0.078h-1.291v-0.078c0.231,0,0.375-0.047,0.431-0.141c0.056-0.094,0.084-0.318,0.084-0.672v-5.192
		c0-0.455-0.056-0.826-0.167-1.115c-0.111-0.288-0.367-0.421-0.769-0.4v-0.079h1.264l5.036,6.126v-5.417
		c0-0.292-0.046-0.47-0.137-0.534c-0.091-0.064-0.209-0.096-0.352-0.096V61.042z"/>
	<path fill="#FFFFFF" d="M50.684,65.185h-1.972l-1.017,2.897c-0.07,0.208-0.105,0.337-0.105,0.386c0,0.115,0.075,0.172,0.224,0.172
		v0.078h-1v-0.078c0.134,0,0.247-0.038,0.337-0.112c0.091-0.075,0.191-0.269,0.301-0.582l2.435-7.019h0.121l2.396,6.779
		c0,0.035,0.061,0.199,0.184,0.493c0.123,0.293,0.311,0.441,0.562,0.441v0.078h-1.569v-0.078c0.143,0,0.214-0.064,0.214-0.193
		c0-0.087-0.035-0.226-0.105-0.417c-0.012-0.014-0.022-0.037-0.032-0.068c-0.006-0.034-0.011-0.052-0.014-0.052L50.684,65.185z
		 M48.776,64.971h1.818l-0.908-2.616L48.776,64.971z"/>
	<path fill="#FFFFFF" d="M58.027,60.776l-0.319,0.928h-0.068c0.012-0.056,0.018-0.13,0.018-0.224c0-0.08-0.025-0.131-0.075-0.154
		c-0.05-0.022-0.129-0.034-0.239-0.034h-1.752v6.567c0,0.271,0.019,0.456,0.057,0.555c0.038,0.099,0.09,0.161,0.155,0.188
		c0.065,0.026,0.171,0.039,0.317,0.039v0.078H54.3v-0.078c0.228-0.018,0.372-0.068,0.429-0.151c0.058-0.083,0.086-0.257,0.086-0.521
		v-6.676h-1.68c-0.17,0-0.281,0.011-0.332,0.034s-0.077,0.079-0.077,0.169c0,0.045,0.012,0.115,0.036,0.208h-0.068l-0.319-0.928
		h0.068c0.054,0.125,0.108,0.201,0.162,0.227c0.053,0.026,0.168,0.039,0.344,0.039h4.458c0.176,0,0.303-0.013,0.38-0.039
		c0.078-0.026,0.134-0.102,0.171-0.227H58.027z"/>
	<path fill="#FFFFFF" d="M60.13,61.042v0.079c-0.089-0.011-0.187,0.005-0.294,0.046c-0.108,0.042-0.172,0.103-0.192,0.183
		c-0.02,0.08-0.029,0.269-0.029,0.567v5.89c0,0.319,0.011,0.515,0.034,0.586s0.067,0.13,0.132,0.177
		c0.065,0.047,0.182,0.07,0.35,0.07v0.078h-1.793v-0.078c0.225,0,0.365-0.05,0.419-0.149c0.055-0.099,0.082-0.323,0.082-0.674
		v-5.833c0-0.365-0.03-0.603-0.091-0.716c-0.061-0.113-0.198-0.163-0.41-0.148v-0.079H60.13z"/>
	<path fill="#FFFFFF" d="M64.519,60.928c0.942,0,1.713,0.327,2.312,0.982c0.599,0.655,0.899,1.472,0.899,2.452
		c0,1.261-0.347,2.323-1.041,3.184c-0.693,0.862-1.613,1.292-2.759,1.292c-0.931,0-1.693-0.347-2.286-1.042
		c-0.593-0.695-0.89-1.528-0.89-2.501c0-0.656,0.143-1.331,0.429-2.021c0.286-0.691,0.716-1.255,1.292-1.691
		C63.05,61.146,63.73,60.928,64.519,60.928 M64.491,68.432c0.462,0,0.919-0.142,1.369-0.424c0.45-0.284,0.805-0.673,1.063-1.17
		c0.258-0.497,0.388-1.007,0.388-1.532c0-0.744-0.174-1.419-0.522-2.027c-0.349-0.608-0.8-1.084-1.355-1.429
		c-0.555-0.343-1.068-0.516-1.54-0.516c-0.666,0-1.271,0.287-1.813,0.86s-0.814,1.286-0.814,2.136c0,1.088,0.332,2.043,0.995,2.867
		C62.923,68.02,63.667,68.432,64.491,68.432"/>
	<path fill="#FFFFFF" d="M73.916,61.042h1.3v0.079c-0.198,0.007-0.334,0.054-0.411,0.143c-0.076,0.089-0.114,0.275-0.114,0.56v6.989
		l-5.36-6.521v5.677c0,0.181,0.012,0.314,0.037,0.401c0.024,0.086,0.06,0.146,0.105,0.177c0.046,0.031,0.159,0.062,0.342,0.094
		v0.078h-1.291v-0.078c0.231,0,0.375-0.047,0.431-0.141c0.056-0.094,0.084-0.318,0.084-0.672v-5.192
		c0-0.455-0.056-0.826-0.167-1.115c-0.11-0.288-0.367-0.421-0.768-0.4v-0.079h1.263l5.036,6.126v-5.417
		c0-0.292-0.046-0.47-0.137-0.534c-0.091-0.064-0.208-0.096-0.351-0.096V61.042z"/>
	<path fill="#FFFFFF" d="M79.212,65.185h-1.972l-1.017,2.897c-0.07,0.208-0.105,0.337-0.105,0.386c0,0.115,0.075,0.172,0.224,0.172
		v0.078h-0.999v-0.078c0.133,0,0.246-0.038,0.337-0.112c0.091-0.075,0.191-0.269,0.301-0.582l2.436-7.019h0.121l2.396,6.779
		c0,0.035,0.062,0.199,0.184,0.493c0.123,0.293,0.311,0.441,0.562,0.441v0.078H80.11v-0.078c0.143,0,0.214-0.064,0.214-0.193
		c0-0.087-0.035-0.226-0.105-0.417c-0.012-0.014-0.022-0.037-0.032-0.068c-0.006-0.034-0.011-0.052-0.014-0.052L79.212,65.185z
		 M77.305,64.971h1.817l-0.908-2.616L77.305,64.971z"/>
	<path fill="#FFFFFF" d="M81.839,68.719v-0.078c0.209,0,0.346-0.045,0.408-0.135c0.062-0.091,0.094-0.245,0.094-0.464v-6.28
		c0-0.222-0.024-0.383-0.073-0.481c-0.048-0.099-0.195-0.152-0.438-0.159v-0.079h1.802v0.079c-0.167,0-0.285,0.024-0.352,0.073
		s-0.111,0.106-0.132,0.172c-0.021,0.066-0.032,0.216-0.032,0.448v5.389c0,0.462,0.097,0.788,0.292,0.977s0.527,0.284,0.998,0.284
		h0.82c0.395,0,0.685-0.111,0.868-0.333c0.183-0.222,0.286-0.642,0.308-1.256h0.068v1.845H81.839z"/>
	<path fill="#FFFFFF" d="M49.316,8.635c-10.161,0-18.398,8.132-18.398,18.165s8.237,18.165,18.398,18.165S67.715,36.832,67.715,26.8
		S59.478,8.635,49.316,8.635 M56.612,42.04c-0.769,0.436-1.574,0.806-2.41,1.101V30.073h2.41V42.04z M56.612,29.132h-2.41V10.459
		c0.836,0.295,1.642,0.665,2.41,1.1V29.132z M45.13,30.073v13.294c-0.799-0.238-1.572-0.542-2.315-0.908V28.047h1.706h0.127h7.515
		v1.085h-6.007H45.13V30.073z M52.163,9.902V26.85h-7.515h-0.127h-1.706V14.925v-3.784c0.743-0.365,1.516-0.67,2.315-0.908v15.469
		h1.026V9.963c1.021-0.226,2.078-0.344,3.161-0.344C50.289,9.619,51.239,9.72,52.163,9.902 M33.51,26.8
		c0-6.068,2.896-11.397,7.266-14.454v28.908C36.406,38.197,33.51,32.868,33.51,26.8 M46.156,43.637V30.073h6.007v13.625
		c-0.923,0.183-1.874,0.283-2.846,0.283C48.234,43.981,47.177,43.862,46.156,43.637 M57.638,41.406V12.194
		c4.492,3.03,7.485,8.437,7.485,14.606C65.123,32.969,62.13,38.376,57.638,41.406"/>
</g>
</svg>
