<?xml version="1.0" encoding="utf-8"?>
<!-- Generator: Adobe Illustrator 16.0.0, SVG Export Plug-In . SVG Version: 6.00 Build 0)  -->
<!DOCTYPE svg PUBLIC "-//W3C//DTD SVG 1.1//EN" "http://www.w3.org/Graphics/SVG/1.1/DTD/svg11.dtd">
<svg version="1.1" id="Layer_1" xmlns="http://www.w3.org/2000/svg" xmlns:xlink="http://www.w3.org/1999/xlink" x="0px" y="0px"
	 width="154.333px" height="121.667px" viewBox="0 0 154.333 121.667" enable-background="new 0 0 154.333 121.667"
	 xml:space="preserve">
<g>
	<path fill="#FFFFFF" d="M19.327,85.347h-6.993v5.592c0,0.526,0.021,0.861,0.065,1.006c0.042,0.145,0.123,0.266,0.241,0.365
		c0.118,0.098,0.323,0.147,0.618,0.147v0.149H9.964v-0.149c0.599,0.047,0.899-0.286,0.899-0.996V79.766
		c0-0.664-0.047-1.085-0.142-1.263c-0.096-0.177-0.348-0.276-0.757-0.297v-0.146h3.294v0.146c-0.364,0.027-0.608,0.108-0.735,0.238
		c-0.127,0.133-0.19,0.402-0.19,0.811v5.688h6.993v-5.206c0-0.593-0.044-0.995-0.134-1.209c-0.09-0.214-0.338-0.323-0.749-0.323
		v-0.146h3.251v0.146c-0.257,0-0.448,0.036-0.573,0.105c-0.125,0.069-0.211,0.176-0.257,0.321c-0.045,0.146-0.069,0.513-0.069,1.104
		v11.163c0,0.573,0.023,0.93,0.069,1.07c0.046,0.142,0.125,0.259,0.24,0.351c0.114,0.091,0.311,0.137,0.591,0.137v0.149h-3.251
		v-0.149c0.352,0,0.587-0.082,0.705-0.246c0.118-0.165,0.177-0.608,0.177-1.332V85.347z"/>
	<path fill="#FFFFFF" d="M30.114,77.841c1.787,0,3.247,0.621,4.383,1.862c1.136,1.241,1.703,2.79,1.703,4.646
		c0,2.39-0.656,4.401-1.971,6.034c-1.313,1.634-3.057,2.45-5.229,2.45c-1.764,0-3.207-0.658-4.332-1.975
		c-1.124-1.317-1.686-2.897-1.686-4.741c0-1.245,0.271-2.522,0.813-3.832c0.542-1.311,1.358-2.379,2.447-3.205
		C27.331,78.255,28.622,77.841,30.114,77.841 M30.063,92.063c0.875,0,1.74-0.269,2.593-0.806c0.854-0.536,1.525-1.275,2.014-2.217
		c0.49-0.941,0.735-1.91,0.735-2.904c0-1.407-0.329-2.688-0.99-3.841c-0.66-1.152-1.516-2.055-2.567-2.706
		c-1.051-0.653-2.024-0.979-2.917-0.979c-1.261,0-2.408,0.544-3.436,1.629c-1.029,1.086-1.543,2.436-1.543,4.05
		c0,2.062,0.628,3.872,1.884,5.432S28.501,92.063,30.063,92.063"/>
	<path fill="#FFFFFF" d="M47.266,77.556l-0.604,1.758h-0.13c0.022-0.105,0.035-0.247,0.035-0.425c0-0.151-0.047-0.248-0.143-0.291
		c-0.094-0.044-0.246-0.064-0.453-0.064H42.65v12.444c0,0.514,0.037,0.864,0.108,1.052c0.073,0.187,0.171,0.306,0.294,0.355
		c0.124,0.05,0.324,0.074,0.6,0.074v0.149h-3.448v-0.149c0.431-0.033,0.702-0.128,0.812-0.286c0.11-0.158,0.165-0.486,0.165-0.986
		V78.533h-3.183c-0.321,0-0.532,0.021-0.63,0.064c-0.097,0.043-0.146,0.149-0.146,0.32c0,0.086,0.023,0.218,0.069,0.396h-0.13
		l-0.604-1.758h0.129c0.103,0.236,0.205,0.379,0.305,0.429c0.102,0.049,0.318,0.074,0.652,0.074h8.449
		c0.333,0,0.574-0.025,0.72-0.074c0.147-0.05,0.255-0.193,0.324-0.429H47.266z"/>
	<path fill="#FFFFFF" d="M47.94,78.227v-0.168h8.006v2.005h-0.129c-0.173-0.745-0.32-1.182-0.437-1.313
		c-0.119-0.132-0.408-0.198-0.868-0.198H50.31v6.528h3.898c0.387,0,0.631-0.042,0.735-0.125c0.104-0.082,0.159-0.202,0.165-0.36
		h0.129v1.373h-0.129c-0.03-0.191-0.098-0.319-0.204-0.385c-0.107-0.065-0.305-0.098-0.592-0.098H50.31v4.493
		c0,0.679,0.054,1.168,0.164,1.467c0.11,0.301,0.283,0.487,0.523,0.563c0.238,0.076,0.6,0.114,1.083,0.114h2.244
		c0.713,0,1.17-0.028,1.368-0.083c0.2-0.057,0.368-0.167,0.506-0.333c0.138-0.167,0.244-0.532,0.319-1.096h0.13v1.997H47.94v-0.149
		c0.294-0.02,0.517-0.083,0.671-0.192c0.152-0.109,0.229-0.39,0.229-0.844V79.677c0-0.533-0.041-0.907-0.121-1.124
		C48.637,78.336,48.379,78.227,47.94,78.227"/>
	<path fill="#FFFFFF" d="M57.061,92.606v-0.149c0.398,0,0.655-0.085,0.773-0.256c0.119-0.171,0.178-0.464,0.178-0.879V79.421
		c0-0.42-0.046-0.724-0.139-0.913c-0.092-0.187-0.369-0.288-0.83-0.303v-0.146h3.415v0.146c-0.318,0-0.539,0.048-0.666,0.141
		c-0.127,0.093-0.21,0.2-0.251,0.325c-0.04,0.125-0.06,0.408-0.06,0.85v10.211c0,0.875,0.184,1.493,0.553,1.852
		c0.367,0.358,0.999,0.538,1.891,0.538h1.553c0.748,0,1.296-0.21,1.645-0.632c0.349-0.42,0.542-1.216,0.583-2.38h0.129v3.496H57.061
		z"/>
	<path fill="#FFFFFF" d="M81.629,85.347h-6.993v5.592c0,0.526,0.021,0.861,0.064,1.006c0.043,0.145,0.124,0.266,0.242,0.365
		c0.117,0.098,0.323,0.147,0.617,0.147v0.149h-3.293v-0.149c0.599,0.047,0.898-0.286,0.898-0.996V79.766
		c0-0.664-0.047-1.085-0.142-1.263c-0.095-0.177-0.348-0.276-0.756-0.297v-0.146h3.293v0.146c-0.363,0.027-0.608,0.108-0.734,0.238
		c-0.127,0.133-0.189,0.402-0.189,0.811v5.688h6.993v-5.206c0-0.593-0.045-0.995-0.134-1.209s-0.339-0.323-0.748-0.323v-0.146h3.251
		v0.146c-0.257,0-0.448,0.036-0.574,0.105c-0.126,0.069-0.211,0.176-0.257,0.321c-0.045,0.146-0.069,0.513-0.069,1.104v11.163
		c0,0.573,0.024,0.93,0.069,1.07c0.046,0.142,0.125,0.259,0.239,0.351c0.114,0.091,0.312,0.137,0.591,0.137v0.149h-3.251v-0.149
		c0.352,0,0.587-0.082,0.704-0.246c0.119-0.165,0.178-0.608,0.178-1.332V85.347z"/>
	<path fill="#FFFFFF" d="M92.417,77.841c1.786,0,3.247,0.621,4.382,1.862c1.136,1.241,1.704,2.79,1.704,4.646
		c0,2.39-0.658,4.401-1.973,6.034c-1.313,1.634-3.056,2.45-5.229,2.45c-1.763,0-3.207-0.658-4.331-1.975
		c-1.124-1.317-1.687-2.897-1.687-4.741c0-1.245,0.271-2.522,0.812-3.832c0.542-1.311,1.358-2.379,2.447-3.205
		C89.634,78.255,90.924,77.841,92.417,77.841 M92.366,92.063c0.875,0,1.74-0.269,2.592-0.806c0.854-0.536,1.525-1.275,2.015-2.217
		s0.734-1.91,0.734-2.904c0-1.407-0.33-2.688-0.99-3.841c-0.661-1.152-1.516-2.055-2.568-2.706
		c-1.051-0.653-2.023-0.979-2.917-0.979c-1.262,0-2.407,0.544-3.437,1.629c-1.028,1.086-1.542,2.436-1.542,4.05
		c0,2.062,0.628,3.872,1.884,5.432C89.395,91.283,90.804,92.063,92.366,92.063"/>
	<path fill="#FFFFFF" d="M99.307,92.606v-0.149c0.397,0,0.655-0.085,0.773-0.256c0.119-0.171,0.178-0.464,0.178-0.879V79.421
		c0-0.42-0.046-0.724-0.138-0.913c-0.092-0.187-0.369-0.288-0.83-0.303v-0.146h3.414v0.146c-0.316,0-0.539,0.048-0.666,0.141
		c-0.127,0.093-0.21,0.2-0.25,0.325c-0.041,0.125-0.061,0.408-0.061,0.85v10.211c0,0.875,0.184,1.493,0.553,1.852
		c0.367,0.358,0.998,0.538,1.891,0.538h1.554c0.748,0,1.296-0.21,1.645-0.632c0.349-0.42,0.542-1.216,0.583-2.38h0.13v3.496H99.307z
		"/>
	<path fill="#FFFFFF" d="M112.688,78.059v0.146c-0.167-0.018-0.352,0.012-0.557,0.09c-0.205,0.08-0.326,0.194-0.363,0.346
		c-0.038,0.152-0.056,0.511-0.056,1.076v11.162c0,0.605,0.021,0.976,0.064,1.11c0.043,0.135,0.126,0.247,0.251,0.336
		c0.124,0.089,0.344,0.133,0.661,0.133v0.149h-3.397v-0.149c0.427,0,0.692-0.094,0.795-0.28c0.104-0.188,0.156-0.614,0.156-1.278
		V79.846c0-0.691-0.058-1.144-0.173-1.358c-0.116-0.214-0.375-0.308-0.778-0.283v-0.146H112.688z"/>
	<path fill="#FFFFFF" d="M113.96,78.206v-0.146h5.844c1.486,0,2.66,0.133,3.522,0.4c0.861,0.267,1.612,0.686,2.252,1.259
		s1.146,1.305,1.521,2.197s0.562,1.888,0.562,2.988c0,1.06-0.194,2.102-0.583,3.125c-0.389,1.025-0.917,1.906-1.585,2.646
		c-0.669,0.741-1.375,1.248-2.114,1.521c-0.74,0.273-1.887,0.411-3.436,0.411h-5.982v-0.149h0.155c0.312,0,0.516-0.143,0.615-0.429
		c0.097-0.286,0.147-0.805,0.147-1.555V79.884c0-0.789-0.061-1.266-0.178-1.43C114.581,78.29,114.334,78.206,113.96,78.206
		 M118.299,78.366h-1.954v11.287c0,0.71,0.106,1.239,0.316,1.585c0.21,0.346,0.569,0.597,1.077,0.75
		c0.506,0.155,1.19,0.232,2.048,0.232c2.386,0,4.061-0.7,5.027-2.099c0.965-1.399,1.448-2.924,1.448-4.577
		c0-1.942-0.662-3.625-1.985-5.046C122.954,79.077,120.962,78.366,118.299,78.366"/>
	<path fill="#FFFFFF" d="M134.537,85.91H130.8l-1.928,5.491c-0.133,0.396-0.199,0.639-0.199,0.731c0,0.217,0.141,0.326,0.424,0.326
		v0.149h-1.894v-0.149c0.254,0,0.466-0.071,0.639-0.212c0.173-0.142,0.362-0.509,0.57-1.103l4.615-13.302h0.229l4.541,12.847
		c0,0.067,0.116,0.378,0.349,0.935c0.233,0.557,0.588,0.835,1.065,0.835v0.149h-2.974v-0.149c0.271,0,0.407-0.122,0.407-0.365
		c0-0.164-0.066-0.427-0.199-0.791c-0.024-0.025-0.044-0.069-0.061-0.128c-0.012-0.066-0.021-0.099-0.025-0.099L134.537,85.91z
		 M130.922,85.505h3.443l-1.721-4.958L130.922,85.505z"/>
	<path fill="#FFFFFF" d="M146.091,78.059h1.912v0.146c-0.242,0.021-0.441,0.087-0.597,0.199c-0.155,0.112-0.333,0.342-0.536,0.69
		l-3.112,5.394v6.66c0,0.537,0.061,0.891,0.183,1.059c0.122,0.167,0.387,0.25,0.793,0.25v0.149h-3.406v-0.149
		c0.651,0.047,0.977-0.246,0.977-0.878l-0.018-0.414v-6.148l-3.12-5.901c-0.328-0.626-0.695-0.928-1.098-0.91v-0.146h3.008v0.146
		c-0.28,0-0.42,0.124-0.42,0.366c0,0.125,0.071,0.319,0.216,0.581l2.568,4.842l2.805-4.879c0.053-0.053,0.11-0.15,0.173-0.292
		c0.063-0.141,0.095-0.239,0.095-0.291c0-0.217-0.123-0.328-0.371-0.328h-0.053V78.059z"/>
	<path fill="#FFFFFF" d="M13.217,102.143v0.146c-0.165-0.021-0.347,0.009-0.547,0.086c-0.201,0.078-0.32,0.191-0.357,0.34
		c-0.036,0.147-0.055,0.5-0.055,1.055v10.948c0,0.593,0.021,0.957,0.063,1.088c0.043,0.133,0.125,0.242,0.246,0.33
		c0.122,0.087,0.338,0.13,0.65,0.13v0.145H9.884v-0.145c0.418,0,0.679-0.092,0.78-0.277c0.102-0.184,0.153-0.601,0.153-1.253
		v-10.842c0-0.678-0.056-1.121-0.169-1.33c-0.113-0.211-0.368-0.302-0.763-0.276v-0.146H13.217z"/>
	<path fill="#FFFFFF" d="M24.722,102.143h2.417v0.146c-0.368,0.013-0.622,0.101-0.764,0.266c-0.141,0.166-0.211,0.512-0.211,1.041
		v12.99l-9.963-12.12v10.552c0,0.336,0.022,0.583,0.067,0.745c0.045,0.161,0.11,0.271,0.195,0.33
		c0.085,0.058,0.296,0.117,0.636,0.174v0.145H14.7v-0.145c0.43,0,0.697-0.088,0.802-0.261c0.104-0.174,0.156-0.591,0.156-1.25
		v-9.651c0-0.845-0.104-1.536-0.309-2.072c-0.206-0.535-0.683-0.783-1.429-0.744v-0.146h2.348l9.361,11.388v-10.069
		c0-0.543-0.084-0.874-0.254-0.993c-0.169-0.12-0.388-0.179-0.653-0.179V102.143z"/>
	<path fill="#FFFFFF" d="M38.229,101.649l-0.593,1.724h-0.127c0.022-0.103,0.034-0.242,0.034-0.416c0-0.148-0.046-0.244-0.14-0.286
		c-0.093-0.042-0.241-0.062-0.444-0.062h-3.258v12.207c0,0.503,0.036,0.846,0.106,1.031c0.071,0.183,0.167,0.299,0.289,0.348
		c0.121,0.048,0.318,0.073,0.589,0.073v0.146h-3.383v-0.146c0.423-0.033,0.689-0.125,0.797-0.281
		c0.107-0.155,0.161-0.478,0.161-0.969v-12.409h-3.122c-0.316,0-0.522,0.021-0.617,0.062c-0.096,0.042-0.144,0.147-0.144,0.315
		c0,0.085,0.022,0.213,0.067,0.387h-0.127l-0.593-1.724h0.127c0.101,0.232,0.201,0.374,0.3,0.421c0.1,0.049,0.312,0.072,0.64,0.072
		h8.286c0.328,0,0.563-0.023,0.707-0.072c0.145-0.048,0.25-0.189,0.318-0.421H38.229z"/>
	<path fill="#FFFFFF" d="M38.891,102.309v-0.166h7.852v1.967h-0.126c-0.17-0.73-0.314-1.16-0.429-1.289
		c-0.115-0.128-0.4-0.193-0.853-0.193h-4.121v6.402h3.825c0.378,0,0.619-0.04,0.721-0.121c0.102-0.08,0.155-0.199,0.161-0.353h0.127
		v1.346H45.92c-0.029-0.188-0.095-0.313-0.2-0.377c-0.104-0.064-0.298-0.097-0.581-0.097h-3.926v4.408
		c0,0.665,0.055,1.144,0.162,1.438c0.107,0.294,0.277,0.477,0.513,0.551c0.234,0.075,0.588,0.112,1.062,0.112h2.202
		c0.7,0,1.147-0.028,1.341-0.082c0.195-0.054,0.36-0.164,0.496-0.327c0.137-0.165,0.24-0.522,0.314-1.074h0.126v1.958h-8.538v-0.146
		c0.289-0.02,0.506-0.083,0.657-0.189c0.15-0.106,0.225-0.381,0.225-0.827V103.73c0-0.522-0.04-0.89-0.12-1.103
		C39.575,102.415,39.321,102.309,38.891,102.309"/>
	<path fill="#FFFFFF" d="M48.303,102.29v-0.146h3.544c0.898,0,1.548,0.023,1.951,0.068c0.401,0.046,0.812,0.195,1.233,0.45
		c0.421,0.256,0.739,0.602,0.953,1.039c0.215,0.437,0.323,0.971,0.323,1.605c0,0.723-0.191,1.414-0.573,2.069
		c-0.381,0.656-0.919,1.209-1.615,1.662l0.882,1.549c0.193,0.387,0.703,1.236,1.53,2.544c0.828,1.312,1.469,2.109,1.922,2.396
		c0.452,0.287,0.889,0.431,1.313,0.431c0.418,0,0.899-0.184,1.442-0.551l0.051,0.193c-0.678,0.633-1.559,0.95-2.643,0.95
		c-0.724,0-1.344-0.245-1.864-0.733c-0.521-0.489-1.424-1.831-2.713-4.025c-0.011-0.012-0.017-0.025-0.017-0.038l-1.256-2.207
		l-1.113,0.039h-1.011v5.455c0,0.438,0.051,0.753,0.151,0.943c0.101,0.19,0.345,0.286,0.731,0.286v0.146h-3.222v-0.146
		c0.4-0.02,0.651-0.116,0.751-0.29c0.098-0.175,0.148-0.529,0.148-1.066v-11.335c0-0.368-0.042-0.673-0.127-0.915
		C48.99,102.42,48.732,102.295,48.303,102.29 M50.643,102.521v6.694h1.308c1.031,0,1.796-0.278,2.294-0.833
		c0.498-0.555,0.748-1.285,0.748-2.189c0-0.879-0.245-1.709-0.734-2.495c-0.491-0.784-1.353-1.177-2.588-1.177H50.643z"/>
	<path fill="#FFFFFF" d="M71.637,102.143h2.417v0.146c-0.368,0.013-0.622,0.101-0.764,0.266c-0.141,0.166-0.212,0.512-0.212,1.041
		v12.99l-9.963-12.12v10.552c0,0.336,0.023,0.583,0.068,0.745c0.044,0.161,0.11,0.271,0.195,0.33
		c0.085,0.058,0.296,0.117,0.636,0.174v0.145h-2.399v-0.145c0.429,0,0.697-0.088,0.801-0.261c0.104-0.174,0.156-0.591,0.156-1.25
		v-9.651c0-0.845-0.103-1.536-0.31-2.072c-0.206-0.535-0.683-0.783-1.429-0.744v-0.146h2.349l9.361,11.388v-10.069
		c0-0.543-0.085-0.874-0.254-0.993c-0.17-0.12-0.388-0.179-0.653-0.179V102.143z"/>
	<path fill="#FFFFFF" d="M81.484,109.844h-3.666l-1.89,5.385c-0.131,0.388-0.196,0.628-0.196,0.717c0,0.214,0.139,0.32,0.417,0.32
		v0.146h-1.858v-0.146c0.249,0,0.458-0.07,0.627-0.208c0.169-0.139,0.355-0.5,0.56-1.081l4.526-13.047h0.225l4.453,12.601
		c0,0.064,0.114,0.37,0.342,0.917c0.229,0.545,0.577,0.819,1.044,0.819v0.146h-2.917v-0.146c0.266,0,0.398-0.119,0.398-0.358
		c0-0.162-0.065-0.42-0.194-0.775c-0.023-0.026-0.042-0.068-0.059-0.127c-0.011-0.063-0.021-0.097-0.026-0.097L81.484,109.844z
		 M77.938,109.447h3.379l-1.687-4.862L77.938,109.447z"/>
	<path fill="#FFFFFF" d="M95.133,101.649l-0.594,1.724h-0.127c0.022-0.103,0.034-0.242,0.034-0.416c0-0.148-0.046-0.244-0.14-0.286
		c-0.093-0.042-0.241-0.062-0.444-0.062h-3.256v12.207c0,0.503,0.034,0.846,0.105,1.031c0.071,0.183,0.167,0.299,0.289,0.348
		s0.318,0.073,0.589,0.073v0.146h-3.384v-0.146c0.424-0.033,0.69-0.125,0.798-0.281c0.106-0.155,0.16-0.478,0.16-0.969v-12.409
		h-3.122c-0.316,0-0.521,0.021-0.617,0.062c-0.096,0.042-0.144,0.147-0.144,0.315c0,0.085,0.022,0.213,0.067,0.387h-0.127
		l-0.594-1.724h0.127c0.101,0.232,0.202,0.374,0.3,0.421c0.099,0.049,0.312,0.072,0.64,0.072h8.286c0.328,0,0.563-0.023,0.707-0.072
		c0.144-0.048,0.25-0.189,0.318-0.421H95.133z"/>
	<path fill="#FFFFFF" d="M99.042,102.143v0.146c-0.165-0.021-0.347,0.009-0.547,0.086c-0.201,0.078-0.32,0.191-0.357,0.34
		c-0.036,0.147-0.054,0.5-0.054,1.055v10.948c0,0.593,0.021,0.957,0.063,1.088c0.043,0.133,0.125,0.242,0.246,0.33
		c0.122,0.087,0.338,0.13,0.649,0.13v0.145H95.71v-0.145c0.418,0,0.678-0.092,0.78-0.277c0.102-0.184,0.153-0.601,0.153-1.253
		v-10.842c0-0.678-0.057-1.121-0.17-1.33c-0.113-0.211-0.368-0.302-0.763-0.276v-0.146H99.042z"/>
	<path fill="#FFFFFF" d="M107.2,101.931c1.751,0,3.185,0.608,4.298,1.826c1.114,1.217,1.671,2.735,1.671,4.557
		c0,2.345-0.646,4.317-1.935,5.918c-1.288,1.602-2.998,2.402-5.128,2.402c-1.731,0-3.147-0.645-4.249-1.938
		c-1.103-1.292-1.654-2.841-1.654-4.65c0-1.22,0.266-2.473,0.797-3.757c0.53-1.285,1.331-2.333,2.4-3.144
		C104.469,102.335,105.735,101.931,107.2,101.931 M107.147,115.879c0.86,0,1.708-0.263,2.544-0.789
		c0.836-0.527,1.496-1.251,1.976-2.175c0.479-0.923,0.72-1.872,0.72-2.848c0-1.382-0.323-2.639-0.97-3.767
		c-0.648-1.131-1.487-2.016-2.519-2.656c-1.032-0.638-1.986-0.958-2.862-0.958c-1.238,0-2.362,0.533-3.371,1.598
		c-1.008,1.066-1.514,2.39-1.514,3.971c0,2.022,0.616,3.798,1.849,5.329C104.233,115.114,105.616,115.879,107.147,115.879"/>
	<path fill="#FFFFFF" d="M124.666,102.143h2.417v0.146c-0.368,0.013-0.622,0.101-0.764,0.266c-0.141,0.166-0.211,0.512-0.211,1.041
		v12.99l-9.964-12.12v10.552c0,0.336,0.022,0.583,0.068,0.745c0.045,0.161,0.111,0.271,0.195,0.33
		c0.085,0.058,0.296,0.117,0.635,0.174v0.145h-2.399v-0.145c0.429,0,0.697-0.088,0.801-0.261c0.104-0.174,0.158-0.591,0.158-1.25
		v-9.651c0-0.845-0.104-1.536-0.311-2.072c-0.205-0.535-0.683-0.783-1.428-0.744v-0.146h2.348l9.361,11.388v-10.069
		c0-0.543-0.086-0.874-0.254-0.993c-0.17-0.12-0.388-0.179-0.653-0.179V102.143z"/>
	<path fill="#FFFFFF" d="M134.512,109.844h-3.665l-1.891,5.385c-0.13,0.388-0.196,0.628-0.196,0.717c0,0.214,0.139,0.32,0.417,0.32
		v0.146h-1.857v-0.146c0.248,0,0.458-0.07,0.626-0.208c0.17-0.139,0.356-0.5,0.56-1.081l4.527-13.047h0.225l4.453,12.601
		c0,0.064,0.114,0.37,0.342,0.917c0.229,0.545,0.577,0.819,1.044,0.819v0.146h-2.917v-0.146c0.266,0,0.398-0.119,0.398-0.358
		c0-0.162-0.064-0.42-0.195-0.775c-0.022-0.026-0.042-0.068-0.059-0.127c-0.01-0.063-0.02-0.097-0.025-0.097L134.512,109.844z
		 M130.967,109.447h3.378l-1.688-4.862L130.967,109.447z"/>
	<path fill="#FFFFFF" d="M139.394,116.413v-0.146c0.389,0,0.643-0.084,0.759-0.251c0.116-0.169,0.174-0.456,0.174-0.864v-11.673
		c0-0.413-0.045-0.711-0.136-0.895c-0.09-0.185-0.362-0.282-0.814-0.295v-0.146h3.35v0.146c-0.312,0-0.529,0.044-0.653,0.135
		c-0.125,0.091-0.206,0.197-0.246,0.319c-0.039,0.124-0.059,0.401-0.059,0.834v10.016c0,0.859,0.181,1.464,0.542,1.816
		s0.979,0.528,1.854,0.528h1.524c0.734,0,1.272-0.207,1.613-0.62c0.341-0.413,0.532-1.192,0.572-2.334H148v3.429H139.394z"/>
	<path fill="#FFFFFF" d="M78.942,4.731c-18.887,0-34.199,15.116-34.199,33.764c0,18.648,15.312,33.764,34.199,33.764
		s34.198-15.116,34.198-33.764C113.14,19.848,97.83,4.731,78.942,4.731 M92.503,66.823c-1.429,0.811-2.925,1.498-4.48,2.045V44.58
		h4.48V66.823z M92.503,42.831h-4.48V8.122c1.555,0.548,3.051,1.236,4.48,2.045V42.831z M71.161,44.58v24.71
		c-1.486-0.442-2.922-1.009-4.303-1.688V40.814h3.17h0.236h13.968v2.017H73.067h-1.907V44.58z M84.232,7.087v31.501H70.264h-0.236
		h-3.17V16.422V9.388c1.381-0.679,2.817-1.245,4.303-1.687v28.753h1.907V7.2c1.899-0.419,3.863-0.64,5.875-0.64
		C80.75,6.56,82.517,6.747,84.232,7.087 M49.562,38.495c0-11.279,5.384-21.184,13.506-26.866v53.732
		C54.946,59.679,49.562,49.774,49.562,38.495 M73.067,69.791V44.58h11.165v25.325c-1.716,0.339-3.483,0.526-5.29,0.526
		C76.93,70.431,74.966,70.21,73.067,69.791 M94.41,65.645V11.346c8.351,5.631,13.913,15.682,13.913,27.149
		C108.323,49.962,102.761,60.012,94.41,65.645"/>
</g>
</svg>
