<?xml version="1.0" encoding="utf-8"?>
<!-- Generator: Adobe Illustrator 16.0.0, SVG Export Plug-In . SVG Version: 6.00 Build 0)  -->
<!DOCTYPE svg PUBLIC "-//W3C//DTD SVG 1.1//EN" "http://www.w3.org/Graphics/SVG/1.1/DTD/svg11.dtd">
<svg version="1.1" id="Layer_1" xmlns="http://www.w3.org/2000/svg" xmlns:xlink="http://www.w3.org/1999/xlink" x="0px" y="0px"
	 width="400px" height="141.667px" viewBox="0 0 400 141.667" enable-background="new 0 0 400 141.667" xml:space="preserve">
<g>
	<g>
		<path fill="#FFFFFF" d="M163.006,52.764h-12.385v9.903c0,0.932,0.037,1.525,0.116,1.782c0.075,0.256,0.218,0.471,0.427,0.646
			c0.209,0.173,0.572,0.26,1.096,0.26v0.264h-5.834v-0.264c1.062,0.083,1.592-0.506,1.592-1.763V42.88
			c0-1.176-0.084-1.922-0.251-2.237c-0.169-0.313-0.615-0.489-1.341-0.526v-0.26h5.834v0.26c-0.645,0.048-1.078,0.19-1.303,0.421
			c-0.225,0.235-0.336,0.712-0.336,1.436v10.075h12.385v-9.22c0-1.05-0.078-1.762-0.236-2.141s-0.6-0.571-1.326-0.571v-0.26h5.758
			v0.26c-0.455,0-0.794,0.063-1.016,0.185c-0.223,0.122-0.375,0.312-0.455,0.569c-0.08,0.257-0.122,0.908-0.122,1.957v19.769
			c0,1.014,0.042,1.646,0.122,1.895c0.08,0.251,0.222,0.458,0.424,0.622c0.203,0.162,0.552,0.243,1.047,0.243v0.264h-5.758v-0.264
			c0.624,0,1.041-0.145,1.249-0.436c0.209-0.291,0.313-1.077,0.313-2.358V52.764z"/>
		<path fill="#FFFFFF" d="M182.111,39.471c3.164,0,5.75,1.1,7.764,3.298c2.01,2.197,3.015,4.939,3.015,8.228
			c0,4.232-1.163,7.794-3.491,10.686c-2.326,2.893-5.415,4.338-9.262,4.338c-3.123,0-5.678-1.166-7.67-3.498
			c-1.99-2.333-2.986-5.131-2.986-8.395c0-2.204,0.48-4.467,1.439-6.787c0.961-2.321,2.405-4.213,4.334-5.675
			C177.183,40.204,179.469,39.471,182.111,39.471 M182.021,64.658c1.551,0,3.08-0.476,4.592-1.427
			c1.511-0.948,2.7-2.258,3.566-3.925c0.868-1.668,1.303-3.382,1.303-5.143c0-2.493-0.584-4.761-1.754-6.802
			c-1.169-2.04-2.685-3.639-4.547-4.792c-1.861-1.156-3.585-1.733-5.166-1.733c-2.234,0-4.266,0.963-6.086,2.885
			c-1.822,1.924-2.732,4.314-2.732,7.172c0,3.65,1.11,6.857,3.336,9.62C176.758,63.276,179.254,64.658,182.021,64.658"/>
		<path fill="#FFFFFF" d="M212.486,38.965l-1.07,3.114h-0.23c0.041-0.187,0.062-0.438,0.062-0.752c0-0.269-0.083-0.439-0.253-0.516
			c-0.166-0.077-0.436-0.114-0.801-0.114h-5.882v22.038c0,0.911,0.064,1.53,0.191,1.863c0.128,0.331,0.302,0.542,0.521,0.628
			c0.221,0.088,0.574,0.13,1.064,0.13v0.264h-6.107v-0.264c0.764-0.058,1.243-0.227,1.438-0.506c0.195-0.28,0.291-0.861,0.291-1.747
			V40.696h-5.637c-0.568,0-0.941,0.037-1.115,0.114c-0.172,0.077-0.26,0.265-0.26,0.567c0,0.153,0.041,0.386,0.123,0.701h-0.23
			l-1.07-3.114h0.23c0.182,0.419,0.361,0.672,0.539,0.76c0.181,0.088,0.564,0.132,1.156,0.132h14.963
			c0.592,0,1.018-0.043,1.276-0.132c0.261-0.088,0.452-0.341,0.573-0.76H212.486z"/>
		<path fill="#FFFFFF" d="M213.681,40.154v-0.297h14.179v3.551h-0.23c-0.307-1.318-0.565-2.093-0.773-2.326
			c-0.21-0.233-0.723-0.351-1.537-0.351h-7.442v11.562h6.905c0.685,0,1.117-0.074,1.301-0.22c0.184-0.145,0.281-0.358,0.292-0.638
			h0.228v2.431h-0.228c-0.054-0.338-0.173-0.564-0.36-0.682c-0.189-0.116-0.54-0.174-1.049-0.174h-7.089v7.957
			c0,1.202,0.097,2.069,0.291,2.598c0.194,0.532,0.501,0.863,0.926,0.997c0.423,0.135,1.062,0.202,1.917,0.202h3.976
			c1.263,0,2.071-0.05,2.422-0.148c0.354-0.1,0.651-0.295,0.896-0.59c0.244-0.295,0.432-0.942,0.566-1.94h0.229v3.535h-15.417
			v-0.264c0.521-0.034,0.917-0.148,1.188-0.339c0.27-0.193,0.404-0.691,0.404-1.495V42.723c0-0.944-0.072-1.607-0.213-1.992
			C214.915,40.347,214.457,40.154,213.681,40.154"/>
		<path fill="#FFFFFF" d="M229.833,65.62v-0.264c0.704,0,1.161-0.151,1.37-0.453c0.21-0.302,0.314-0.821,0.314-1.556V42.268
			c0-0.744-0.082-1.283-0.246-1.615c-0.162-0.331-0.652-0.51-1.469-0.536v-0.26h6.047v0.26c-0.562,0-0.955,0.084-1.179,0.248
			c-0.226,0.164-0.372,0.354-0.445,0.576c-0.071,0.222-0.106,0.723-0.106,1.506v18.083c0,1.551,0.326,2.644,0.979,3.28
			c0.651,0.635,1.769,0.953,3.349,0.953h2.751c1.325,0,2.296-0.373,2.913-1.12c0.617-0.744,0.961-2.152,1.031-4.214h0.229v6.191
			H229.833z"/>
		<path fill="#FFFFFF" d="M273.343,52.764h-12.385v9.903c0,0.932,0.037,1.525,0.113,1.782c0.078,0.256,0.219,0.471,0.43,0.646
			c0.207,0.173,0.572,0.26,1.093,0.26v0.264h-5.831v-0.264c1.061,0.083,1.591-0.506,1.591-1.763V42.88
			c0-1.176-0.083-1.922-0.253-2.237c-0.168-0.313-0.615-0.489-1.338-0.526v-0.26h5.831v0.26c-0.644,0.048-1.077,0.19-1.3,0.421
			c-0.226,0.235-0.336,0.712-0.336,1.436v10.075h12.385v-9.22c0-1.05-0.081-1.762-0.238-2.141c-0.158-0.379-0.6-0.571-1.324-0.571
			v-0.26h5.757v0.26c-0.454,0-0.794,0.063-1.016,0.185c-0.224,0.122-0.374,0.312-0.455,0.569c-0.08,0.257-0.122,0.908-0.122,1.957
			v19.769c0,1.014,0.042,1.646,0.122,1.895c0.081,0.251,0.222,0.458,0.425,0.622c0.201,0.162,0.551,0.243,1.046,0.243v0.264h-5.757
			v-0.264c0.621,0,1.039-0.145,1.246-0.436c0.211-0.291,0.316-1.077,0.316-2.358V52.764z"/>
		<path fill="#FFFFFF" d="M292.448,39.471c3.164,0,5.752,1.1,7.762,3.298c2.012,2.197,3.018,4.939,3.018,8.228
			c0,4.232-1.166,7.794-3.492,10.686c-2.326,2.893-5.414,4.338-9.261,4.338c-3.123,0-5.681-1.166-7.67-3.498
			c-1.99-2.333-2.987-5.131-2.987-8.395c0-2.204,0.479-4.467,1.439-6.787c0.959-2.321,2.404-4.213,4.333-5.675
			C287.519,40.204,289.805,39.471,292.448,39.471 M292.358,64.658c1.55,0,3.082-0.476,4.591-1.427
			c1.511-0.948,2.7-2.258,3.568-3.925c0.868-1.668,1.3-3.382,1.3-5.143c0-2.493-0.583-4.761-1.752-6.802
			c-1.17-2.04-2.684-3.639-4.547-4.792c-1.863-1.156-3.584-1.733-5.168-1.733c-2.234,0-4.262,0.963-6.085,2.885
			c-1.821,1.924-2.732,4.314-2.732,7.172c0,3.65,1.112,6.857,3.337,9.62C287.097,63.276,289.591,64.658,292.358,64.658"/>
		<path fill="#FFFFFF" d="M304.649,65.62v-0.264c0.705,0,1.161-0.151,1.37-0.453c0.21-0.302,0.315-0.821,0.315-1.556V42.268
			c0-0.744-0.082-1.283-0.244-1.615c-0.164-0.331-0.654-0.51-1.471-0.536v-0.26h6.046v0.26c-0.562,0-0.954,0.084-1.179,0.248
			c-0.225,0.164-0.372,0.354-0.443,0.576c-0.072,0.222-0.107,0.723-0.107,1.506v18.083c0,1.551,0.326,2.644,0.979,3.28
			c0.651,0.635,1.768,0.953,3.349,0.953h2.752c1.324,0,2.295-0.373,2.912-1.12c0.618-0.744,0.962-2.152,1.032-4.214h0.23v6.191
			H304.649z"/>
		<path fill="#FFFFFF" d="M328.349,39.857v0.26c-0.296-0.032-0.623,0.02-0.986,0.158c-0.362,0.142-0.578,0.344-0.644,0.612
			c-0.065,0.27-0.099,0.905-0.099,1.906v19.767c0,1.072,0.037,1.728,0.113,1.966c0.077,0.24,0.225,0.438,0.445,0.595
			c0.219,0.158,0.609,0.235,1.17,0.235v0.264h-6.016v-0.264c0.755,0,1.225-0.166,1.407-0.497c0.185-0.333,0.276-1.087,0.276-2.263
			V43.022c0-1.225-0.103-2.025-0.307-2.405s-0.664-0.545-1.377-0.5v-0.26H328.349z"/>
		<path fill="#FFFFFF" d="M330.601,40.117v-0.26h10.35c2.631,0,4.711,0.236,6.238,0.709c1.525,0.473,2.854,1.215,3.988,2.229
			c1.133,1.014,2.031,2.311,2.693,3.891c0.664,1.58,0.994,3.343,0.994,5.292c0,1.877-0.344,3.723-1.033,5.534
			c-0.689,1.814-1.625,3.375-2.808,4.687c-1.185,1.312-2.434,2.21-3.743,2.694c-1.312,0.484-3.342,0.727-6.086,0.727h-10.594v-0.264
			h0.275c0.551,0,0.912-0.252,1.088-0.759c0.172-0.506,0.26-1.426,0.26-2.753V43.089c0-1.397-0.105-2.242-0.314-2.533
			S331.263,40.117,330.601,40.117 M338.285,40.4h-3.46v19.99c0,1.257,0.188,2.194,0.559,2.807c0.373,0.612,1.008,1.056,1.906,1.329
			c0.896,0.275,2.107,0.412,3.628,0.412c4.226,0,7.192-1.239,8.903-3.718c1.71-2.477,2.564-5.179,2.564-8.106
			c0-3.439-1.171-6.419-3.515-8.937C346.529,41.659,343.001,40.4,338.285,40.4"/>
		<path fill="#FFFFFF" d="M367.042,53.761h-6.619l-3.414,9.724c-0.234,0.701-0.352,1.132-0.352,1.295
			c0,0.384,0.249,0.576,0.75,0.576v0.264h-3.353v-0.264c0.448,0,0.825-0.125,1.132-0.375c0.305-0.251,0.641-0.902,1.01-1.953
			l8.173-23.557h0.405l8.041,22.752c0,0.118,0.206,0.669,0.617,1.654c0.414,0.987,1.042,1.479,1.887,1.479v0.264h-5.267v-0.264
			c0.48,0,0.72-0.215,0.72-0.646c0-0.291-0.117-0.757-0.352-1.4c-0.042-0.045-0.077-0.122-0.107-0.227
			c-0.021-0.117-0.037-0.175-0.045-0.175L367.042,53.761z M360.64,53.044h6.099l-3.048-8.78L360.64,53.044z"/>
		<path fill="#FFFFFF" d="M387.503,39.857h3.386v0.26c-0.428,0.036-0.782,0.153-1.058,0.352c-0.275,0.198-0.592,0.606-0.948,1.223
			l-5.512,9.551v11.794c0,0.952,0.108,1.577,0.325,1.874c0.215,0.296,0.684,0.444,1.404,0.444v0.264h-6.032v-0.264
			c1.153,0.083,1.731-0.436,1.731-1.556l-0.033-0.733V52.179l-5.523-10.451c-0.582-1.109-1.231-1.643-1.945-1.611v-0.26h5.326v0.26
			c-0.494,0-0.744,0.217-0.744,0.648c0,0.22,0.127,0.564,0.383,1.029l4.549,8.575l4.969-8.641c0.094-0.093,0.194-0.265,0.305-0.516
			c0.113-0.25,0.17-0.423,0.17-0.516c0-0.384-0.219-0.579-0.658-0.579h-0.094V39.857z"/>
		<path fill="#FFFFFF" d="M152.186,82.51v0.258c-0.291-0.035-0.614,0.016-0.969,0.153c-0.355,0.137-0.566,0.338-0.633,0.601
			c-0.064,0.262-0.096,0.886-0.096,1.868v19.39c0,1.051,0.037,1.694,0.112,1.929c0.075,0.235,0.22,0.428,0.435,0.583
			c0.217,0.154,0.6,0.231,1.15,0.231v0.255h-5.902v-0.255c0.741,0,1.202-0.164,1.381-0.49c0.18-0.325,0.271-1.064,0.271-2.22v-19.2
			c0-1.201-0.1-1.985-0.301-2.356c-0.201-0.373-0.65-0.535-1.352-0.489V82.51H152.186z"/>
		<path fill="#FFFFFF" d="M172.562,82.51h4.28v0.258c-0.65,0.023-1.102,0.179-1.354,0.471c-0.248,0.292-0.374,0.907-0.374,1.844
			v23.006l-17.644-21.464v18.687c0,0.595,0.038,1.033,0.119,1.319c0.08,0.285,0.195,0.479,0.347,0.583
			c0.149,0.101,0.524,0.206,1.125,0.309v0.255h-4.249v-0.255c0.76,0,1.234-0.156,1.42-0.463c0.184-0.309,0.277-1.046,0.277-2.213
			V87.756c0-1.497-0.184-2.72-0.549-3.669c-0.365-0.947-1.209-1.387-2.529-1.318V82.51h4.158l16.578,20.167V84.843
			c0-0.961-0.15-1.548-0.451-1.758c-0.299-0.212-0.686-0.317-1.155-0.317V82.51z"/>
		<path fill="#FFFFFF" d="M196.482,81.635l-1.051,3.054h-0.226c0.04-0.183,0.06-0.429,0.06-0.738c0-0.262-0.082-0.432-0.248-0.506
			c-0.164-0.074-0.426-0.111-0.785-0.111h-5.77v21.617c0,0.892,0.062,1.5,0.188,1.826c0.125,0.325,0.296,0.53,0.511,0.617
			c0.214,0.085,0.562,0.128,1.043,0.128v0.257h-5.992v-0.257c0.751-0.06,1.223-0.223,1.413-0.498
			c0.19-0.273,0.284-0.846,0.284-1.715V83.334h-5.529c-0.559,0-0.924,0.037-1.092,0.111c-0.171,0.074-0.254,0.261-0.254,0.558
			c0,0.149,0.037,0.377,0.118,0.686h-0.226l-1.051-3.054h0.225c0.18,0.411,0.357,0.661,0.533,0.746
			c0.175,0.087,0.551,0.129,1.133,0.129h14.675c0.581,0,0.998-0.042,1.253-0.129c0.255-0.085,0.441-0.334,0.562-0.746H196.482z"/>
		<path fill="#FFFFFF" d="M197.654,82.802V82.51h13.904v3.483h-0.225c-0.301-1.292-0.555-2.054-0.759-2.283
			c-0.204-0.228-0.708-0.342-1.509-0.342h-7.299v11.338h6.773c0.67,0,1.096-0.069,1.275-0.214c0.18-0.142,0.275-0.352,0.287-0.625
			h0.225v2.383h-0.225c-0.053-0.331-0.17-0.554-0.354-0.668s-0.528-0.172-1.028-0.172h-6.953v7.807c0,1.177,0.096,2.025,0.285,2.548
			c0.189,0.521,0.492,0.845,0.908,0.976c0.415,0.133,1.042,0.199,1.881,0.199h3.899c1.239,0,2.032-0.05,2.376-0.145
			c0.346-0.097,0.639-0.291,0.877-0.58c0.242-0.291,0.426-0.924,0.557-1.902h0.223v3.467h-15.119v-0.257
			c0.511-0.035,0.896-0.148,1.164-0.334c0.265-0.189,0.398-0.677,0.398-1.466V85.321c0-0.924-0.071-1.577-0.213-1.953
			C198.865,82.992,198.416,82.802,197.654,82.802"/>
		<path fill="#FFFFFF" d="M214.324,82.768V82.51h6.275c1.592,0,2.742,0.04,3.455,0.12c0.711,0.082,1.438,0.346,2.184,0.797
			c0.746,0.453,1.309,1.066,1.688,1.839c0.381,0.773,0.572,1.72,0.572,2.842c0,1.281-0.339,2.504-1.015,3.665
			c-0.676,1.162-1.629,2.143-2.861,2.945l1.562,2.742c0.342,0.685,1.244,2.189,2.711,4.507c1.465,2.321,2.6,3.734,3.402,4.244
			c0.801,0.508,1.574,0.763,2.326,0.763c0.74,0,1.592-0.326,2.553-0.977l0.091,0.342c-1.2,1.12-2.761,1.681-4.681,1.681
			c-1.281,0-2.381-0.434-3.301-1.299c-0.922-0.866-2.522-3.242-4.805-7.128c-0.02-0.021-0.029-0.043-0.029-0.066l-2.225-3.909
			l-1.971,0.069h-1.791v9.66c0,0.776,0.09,1.333,0.268,1.67s0.611,0.506,1.294,0.506v0.257h-5.704v-0.257
			c0.709-0.035,1.152-0.206,1.328-0.514c0.174-0.311,0.263-0.937,0.263-1.887V85.047c0-0.651-0.075-1.192-0.226-1.62
			C215.539,83,215.084,82.779,214.324,82.768 M218.467,83.178v11.856h2.316c1.826,0,3.182-0.492,4.064-1.476
			c0.882-0.984,1.324-2.276,1.324-3.877c0-1.556-0.435-3.028-1.303-4.419c-0.867-1.389-2.395-2.084-4.582-2.084H218.467z"/>
		<path fill="#FFFFFF" d="M255.647,82.51h4.279v0.258c-0.65,0.023-1.101,0.179-1.352,0.471c-0.249,0.292-0.376,0.907-0.376,1.844
			v23.006l-17.644-21.464v18.687c0,0.595,0.04,1.033,0.12,1.319c0.079,0.285,0.196,0.479,0.346,0.583
			c0.151,0.101,0.523,0.206,1.125,0.309v0.255h-4.248v-0.255c0.76,0,1.234-0.156,1.42-0.463c0.183-0.309,0.275-1.046,0.275-2.213
			V87.756c0-1.497-0.183-2.72-0.547-3.669c-0.365-0.947-1.209-1.387-2.531-1.318V82.51h4.16l16.579,20.167V84.843
			c0-0.961-0.152-1.548-0.451-1.758c-0.301-0.212-0.688-0.317-1.156-0.317V82.51z"/>
		<path fill="#FFFFFF" d="M273.085,96.148h-6.49l-3.348,9.538c-0.232,0.687-0.348,1.111-0.348,1.27c0,0.378,0.246,0.567,0.738,0.567
			v0.257h-3.291v-0.257c0.44,0,0.812-0.124,1.111-0.37c0.3-0.246,0.629-0.884,0.99-1.915l8.016-23.105h0.398l7.887,22.315
			c0,0.114,0.201,0.656,0.605,1.624c0.406,0.966,1.023,1.451,1.851,1.451v0.257h-5.166v-0.257c0.472,0,0.706-0.212,0.706-0.635
			c0-0.286-0.116-0.744-0.346-1.373c-0.041-0.047-0.074-0.121-0.104-0.225c-0.02-0.113-0.036-0.17-0.046-0.17L273.085,96.148z
			 M266.806,95.444h5.983l-2.987-8.611L266.806,95.444z"/>
		<path fill="#FFFFFF" d="M297.258,81.635l-1.052,3.054h-0.225c0.04-0.183,0.06-0.429,0.06-0.738c0-0.262-0.082-0.432-0.247-0.506
			c-0.164-0.074-0.426-0.111-0.787-0.111h-5.767v21.617c0,0.892,0.062,1.5,0.187,1.826c0.125,0.325,0.296,0.53,0.512,0.617
			c0.215,0.085,0.562,0.128,1.043,0.128v0.257h-5.992v-0.257c0.75-0.06,1.223-0.223,1.412-0.498
			c0.189-0.273,0.285-0.846,0.285-1.715V83.334h-5.529c-0.56,0-0.924,0.037-1.094,0.111c-0.168,0.074-0.254,0.261-0.254,0.558
			c0,0.149,0.039,0.377,0.119,0.686h-0.225l-1.051-3.054h0.225c0.178,0.411,0.357,0.661,0.531,0.746
			c0.176,0.087,0.554,0.129,1.134,0.129h14.675c0.58,0,0.998-0.042,1.252-0.129c0.256-0.085,0.442-0.334,0.562-0.746H297.258z"/>
		<path fill="#FFFFFF" d="M304.183,82.51v0.258c-0.293-0.035-0.616,0.016-0.97,0.153c-0.354,0.137-0.565,0.338-0.632,0.601
			c-0.064,0.262-0.096,0.886-0.096,1.868v19.39c0,1.051,0.037,1.694,0.111,1.929c0.076,0.235,0.221,0.428,0.435,0.583
			c0.216,0.154,0.6,0.231,1.151,0.231v0.255h-5.902v-0.255c0.739,0,1.201-0.164,1.381-0.49c0.18-0.325,0.27-1.064,0.27-2.22v-19.2
			c0-1.201-0.1-1.985-0.301-2.356c-0.199-0.373-0.65-0.535-1.35-0.489V82.51H304.183z"/>
		<path fill="#FFFFFF" d="M318.628,82.133c3.102,0,5.64,1.077,7.611,3.234c1.973,2.156,2.959,4.845,2.959,8.071
			c0,4.152-1.143,7.646-3.425,10.481c-2.28,2.837-5.31,4.254-9.083,4.254c-3.064,0-5.572-1.143-7.523-3.432
			c-1.953-2.287-2.93-5.031-2.93-8.234c0-2.16,0.472-4.38,1.412-6.654c0.939-2.276,2.357-4.132,4.252-5.568
			C313.792,82.85,316.033,82.133,318.628,82.133 M318.536,106.835c1.521,0,3.025-0.466,4.505-1.396
			c1.481-0.934,2.649-2.217,3.499-3.853c0.851-1.635,1.276-3.314,1.276-5.042c0-2.448-0.572-4.672-1.718-6.672
			c-1.148-2.003-2.635-3.57-4.461-4.703c-1.827-1.13-3.517-1.697-5.068-1.697c-2.191,0-4.184,0.943-5.969,2.831
			c-1.786,1.887-2.682,4.232-2.682,7.032c0,3.581,1.092,6.727,3.274,9.437C313.374,105.48,315.823,106.835,318.536,106.835"/>
		<path fill="#FFFFFF" d="M349.561,82.51h4.278v0.258c-0.65,0.023-1.101,0.179-1.352,0.471c-0.248,0.292-0.374,0.907-0.374,1.844
			v23.006l-17.646-21.464v18.687c0,0.595,0.04,1.033,0.121,1.319c0.08,0.285,0.195,0.479,0.346,0.583
			c0.15,0.101,0.523,0.206,1.125,0.309v0.255h-4.248v-0.255c0.76,0,1.234-0.156,1.418-0.463c0.184-0.309,0.279-1.046,0.279-2.213
			V87.756c0-1.497-0.184-2.72-0.551-3.669c-0.363-0.947-1.209-1.387-2.527-1.318V82.51h4.158l16.578,20.167V84.843
			c0-0.961-0.152-1.548-0.451-1.758c-0.301-0.212-0.686-0.317-1.155-0.317V82.51z"/>
		<path fill="#FFFFFF" d="M366.997,96.148h-6.49l-3.348,9.538c-0.232,0.687-0.348,1.111-0.348,1.27c0,0.378,0.246,0.567,0.738,0.567
			v0.257h-3.289v-0.257c0.438,0,0.811-0.124,1.109-0.37c0.301-0.246,0.629-0.884,0.99-1.915l8.018-23.105h0.398l7.885,22.315
			c0,0.114,0.203,0.656,0.606,1.624c0.405,0.966,1.022,1.451,1.851,1.451v0.257h-5.166v-0.257c0.471,0,0.705-0.212,0.705-0.635
			c0-0.286-0.114-0.744-0.346-1.373c-0.039-0.047-0.074-0.121-0.104-0.225c-0.019-0.113-0.036-0.17-0.045-0.17L366.997,96.148z
			 M360.719,95.444h5.983l-2.988-8.611L360.719,95.444z"/>
		<path fill="#FFFFFF" d="M375.644,107.78v-0.257c0.689,0,1.138-0.149,1.344-0.445c0.205-0.299,0.309-0.807,0.309-1.528V84.875
			c0-0.731-0.081-1.26-0.242-1.585c-0.158-0.326-0.641-0.5-1.441-0.522V82.51h5.934v0.258c-0.553,0-0.938,0.079-1.158,0.24
			s-0.365,0.349-0.436,0.566c-0.068,0.218-0.104,0.71-0.104,1.476v17.738c0,1.521,0.319,2.593,0.96,3.216
			c0.64,0.624,1.734,0.936,3.283,0.936h2.699c1.301,0,2.254-0.366,2.857-1.098s0.942-2.112,1.014-4.134h0.224v6.073H375.644z"/>
	</g>
	<path fill="#FFFFFF" d="M70.585,11.995c-33.449,0-60.565,26.77-60.565,59.794c0,33.025,27.116,59.796,60.565,59.796
		c33.448,0,60.564-26.771,60.564-59.796C131.149,38.765,104.033,11.995,70.585,11.995 M94.6,121.958
		c-2.53,1.436-5.181,2.652-7.934,3.623V82.565H94.6V121.958z M94.6,79.468h-7.934V18c2.753,0.971,5.403,2.188,7.934,3.622V79.468z
		 M56.803,82.565v43.762c-2.631-0.783-5.174-1.786-7.621-2.988V75.896h5.614h0.418h24.739v3.572H60.181h-3.377V82.565z
		 M79.954,16.166v55.789H55.215h-0.418h-5.614V32.699V20.242c2.446-1.202,4.989-2.205,7.621-2.988v50.922h3.377V16.367
		c3.361-0.743,6.84-1.133,10.404-1.133C73.784,15.234,76.914,15.565,79.954,16.166 M18.551,71.79
		c0-19.974,9.535-37.517,23.919-47.579v95.159C28.086,109.307,18.551,91.764,18.551,71.79 M60.181,127.214V82.565h19.773v44.85
		c-3.04,0.601-6.17,0.932-9.369,0.932C67.021,128.347,63.542,127.957,60.181,127.214 M97.978,119.872V23.709
		c14.789,9.973,24.64,27.773,24.64,48.08C122.617,92.099,112.767,109.896,97.978,119.872"/>
</g>
</svg>
