<?xml version="1.0" encoding="utf-8"?>
<!-- Generator: Adobe Illustrator 16.0.0, SVG Export Plug-In . SVG Version: 6.00 Build 0)  -->
<!DOCTYPE svg PUBLIC "-//W3C//DTD SVG 1.1//EN" "http://www.w3.org/Graphics/SVG/1.1/DTD/svg11.dtd">
<svg version="1.1" id="Layer_1" xmlns="http://www.w3.org/2000/svg" xmlns:xlink="http://www.w3.org/1999/xlink" x="0px" y="0px"
	 width="81.833px" height="25.667px" viewBox="0 0 81.833 25.667" enable-background="new 0 0 81.833 25.667" xml:space="preserve">
<g>
	<path fill="#FFFFFF" d="M32.359,9.51h-2.49V11.5c0,0.188,0.007,0.307,0.023,0.358c0.015,0.051,0.044,0.095,0.086,0.13
		c0.042,0.035,0.115,0.052,0.22,0.052v0.053h-1.172v-0.053c0.213,0.017,0.32-0.102,0.32-0.354V7.523c0-0.237-0.017-0.386-0.05-0.45
		c-0.034-0.062-0.124-0.098-0.27-0.105V6.916h1.172v0.052c-0.129,0.01-0.216,0.038-0.262,0.084C29.892,7.099,29.87,7.195,29.87,7.34
		v2.025h2.49V7.512c0-0.211-0.016-0.354-0.048-0.43c-0.032-0.077-0.12-0.115-0.267-0.115V6.916h1.158v0.052
		c-0.091,0-0.16,0.013-0.204,0.038c-0.045,0.024-0.075,0.062-0.092,0.114c-0.016,0.051-0.024,0.182-0.024,0.393v3.974
		c0,0.204,0.008,0.331,0.024,0.381c0.016,0.05,0.044,0.092,0.085,0.125c0.041,0.033,0.11,0.049,0.21,0.049v0.053h-1.158v-0.053
		c0.125,0,0.209-0.029,0.251-0.087c0.042-0.059,0.063-0.216,0.063-0.475V9.51z"/>
	<path fill="#FFFFFF" d="M36.199,6.838c0.636,0,1.156,0.221,1.561,0.663c0.404,0.442,0.606,0.993,0.606,1.654
		c0,0.851-0.234,1.566-0.702,2.148c-0.467,0.582-1.088,0.872-1.862,0.872c-0.628,0-1.142-0.234-1.542-0.703s-0.6-1.031-0.6-1.688
		c0-0.442,0.096-0.897,0.29-1.364c0.192-0.467,0.483-0.847,0.871-1.141C35.208,6.985,35.668,6.838,36.199,6.838 M36.181,11.9
		c0.312,0,0.619-0.096,0.923-0.287s0.543-0.454,0.717-0.789c0.175-0.335,0.262-0.68,0.262-1.034c0-0.501-0.118-0.957-0.353-1.367
		c-0.235-0.41-0.54-0.731-0.914-0.963s-0.721-0.348-1.039-0.348c-0.449,0-0.857,0.193-1.223,0.58
		c-0.367,0.387-0.549,0.867-0.549,1.442c0,0.734,0.223,1.378,0.671,1.934C35.123,11.623,35.625,11.9,36.181,11.9"/>
	<path fill="#FFFFFF" d="M42.305,6.736L42.09,7.362h-0.046c0.008-0.037,0.012-0.087,0.012-0.151c0-0.054-0.017-0.088-0.05-0.104
		c-0.034-0.016-0.088-0.023-0.161-0.023h-1.183v4.43c0,0.184,0.013,0.308,0.039,0.375c0.026,0.066,0.061,0.109,0.105,0.126
		c0.044,0.018,0.115,0.026,0.214,0.026v0.053h-1.228v-0.053c0.153-0.012,0.25-0.046,0.289-0.102
		c0.039-0.056,0.059-0.173,0.059-0.351V7.084h-1.133c-0.114,0-0.189,0.007-0.225,0.023c-0.034,0.015-0.052,0.053-0.052,0.114
		c0,0.031,0.008,0.078,0.024,0.141h-0.046l-0.215-0.625h0.046c0.036,0.084,0.072,0.135,0.108,0.153
		c0.036,0.018,0.114,0.026,0.232,0.026h3.007c0.119,0,0.205-0.009,0.256-0.026c0.053-0.018,0.091-0.068,0.115-0.153H42.305z"/>
	<path fill="#FFFFFF" d="M42.545,6.976v-0.06h2.85v0.714h-0.046c-0.062-0.265-0.114-0.42-0.156-0.468
		c-0.042-0.047-0.145-0.07-0.309-0.07h-1.496v2.324h1.389c0.138,0,0.225-0.015,0.261-0.044c0.038-0.029,0.057-0.072,0.06-0.128
		h0.046v0.488h-0.046c-0.011-0.067-0.035-0.113-0.072-0.137c-0.038-0.024-0.108-0.035-0.211-0.035h-1.425v1.6
		c0,0.241,0.019,0.416,0.059,0.522c0.039,0.107,0.101,0.173,0.187,0.2c0.084,0.027,0.214,0.041,0.385,0.041h0.799
		c0.254,0,0.417-0.01,0.487-0.03c0.071-0.02,0.131-0.06,0.181-0.119c0.048-0.059,0.086-0.189,0.113-0.39h0.046v0.71h-3.099v-0.053
		c0.105-0.007,0.184-0.03,0.239-0.068c0.054-0.038,0.081-0.139,0.081-0.3V7.492c0-0.19-0.014-0.323-0.042-0.4
		C42.793,7.014,42.701,6.976,42.545,6.976"/>
	<path fill="#FFFFFF" d="M45.792,12.094v-0.053c0.142,0,0.233-0.03,0.275-0.091c0.042-0.061,0.064-0.165,0.064-0.312V7.4
		c0-0.149-0.017-0.258-0.049-0.325c-0.033-0.066-0.132-0.103-0.296-0.107V6.916h1.216v0.052c-0.113,0-0.192,0.017-0.237,0.05
		c-0.045,0.033-0.075,0.071-0.09,0.116s-0.021,0.145-0.021,0.303v3.635c0,0.312,0.065,0.532,0.197,0.66
		c0.13,0.128,0.355,0.191,0.673,0.191h0.552c0.266,0,0.461-0.075,0.585-0.226c0.124-0.149,0.193-0.432,0.208-0.847h0.046v1.245
		H45.792z"/>
	<path fill="#FFFFFF" d="M54.538,9.51h-2.49V11.5c0,0.188,0.007,0.307,0.023,0.358c0.016,0.051,0.044,0.095,0.086,0.13
		c0.041,0.035,0.115,0.052,0.219,0.052v0.053h-1.172v-0.053c0.213,0.017,0.32-0.102,0.32-0.354V7.523c0-0.237-0.017-0.386-0.05-0.45
		c-0.034-0.062-0.124-0.098-0.269-0.105V6.916h1.172v0.052c-0.129,0.01-0.216,0.038-0.261,0.084
		c-0.045,0.047-0.068,0.143-0.068,0.289v2.025h2.49V7.512c0-0.211-0.017-0.354-0.048-0.43c-0.032-0.077-0.12-0.115-0.266-0.115
		V6.916h1.157v0.052c-0.091,0-0.159,0.013-0.204,0.038c-0.045,0.024-0.075,0.062-0.092,0.114c-0.016,0.051-0.025,0.182-0.025,0.393
		v3.974c0,0.204,0.009,0.331,0.025,0.381c0.016,0.05,0.044,0.092,0.085,0.125c0.04,0.033,0.11,0.049,0.21,0.049v0.053h-1.157v-0.053
		c0.125,0,0.209-0.029,0.251-0.087c0.042-0.059,0.062-0.216,0.062-0.475V9.51L54.538,9.51z"/>
	<path fill="#FFFFFF" d="M58.378,6.838c0.636,0,1.156,0.221,1.56,0.663c0.404,0.442,0.607,0.993,0.607,1.654
		c0,0.851-0.235,1.566-0.702,2.148c-0.467,0.582-1.088,0.872-1.862,0.872c-0.627,0-1.141-0.234-1.542-0.703
		s-0.601-1.031-0.601-1.688c0-0.442,0.097-0.897,0.29-1.364c0.192-0.467,0.483-0.847,0.871-1.141
		C57.387,6.985,57.847,6.838,58.378,6.838 M58.36,11.9c0.311,0,0.619-0.096,0.922-0.287c0.304-0.191,0.543-0.454,0.717-0.789
		c0.174-0.335,0.262-0.68,0.262-1.034c0-0.501-0.118-0.957-0.352-1.367c-0.235-0.41-0.54-0.731-0.914-0.963
		s-0.721-0.348-1.039-0.348c-0.45,0-0.858,0.193-1.224,0.58c-0.365,0.387-0.549,0.867-0.549,1.442c0,0.734,0.224,1.378,0.671,1.934
		C57.302,11.623,57.804,11.9,58.36,11.9"/>
	<path fill="#FFFFFF" d="M60.831,12.094v-0.053c0.142,0,0.234-0.03,0.275-0.091c0.042-0.061,0.063-0.165,0.063-0.312V7.4
		c0-0.149-0.017-0.258-0.049-0.325c-0.033-0.066-0.132-0.103-0.296-0.107V6.916h1.216v0.052c-0.113,0-0.192,0.017-0.238,0.05
		c-0.044,0.033-0.075,0.071-0.088,0.116c-0.015,0.045-0.022,0.145-0.022,0.303v3.635c0,0.312,0.066,0.532,0.197,0.66
		s0.355,0.191,0.673,0.191h0.553c0.267,0,0.461-0.075,0.586-0.226c0.124-0.149,0.193-0.432,0.207-0.847h0.047v1.245H60.831z"/>
	<path fill="#FFFFFF" d="M65.594,6.916v0.052c-0.06-0.006-0.125,0.004-0.198,0.032c-0.073,0.029-0.117,0.069-0.13,0.123
		c-0.013,0.055-0.019,0.182-0.019,0.383v3.973c0,0.215,0.007,0.347,0.022,0.395c0.016,0.048,0.046,0.088,0.089,0.119
		c0.044,0.032,0.123,0.048,0.235,0.048v0.053h-1.209v-0.052c0.152,0,0.247-0.033,0.283-0.1c0.037-0.067,0.056-0.218,0.056-0.455
		V7.552c0-0.246-0.021-0.407-0.062-0.483c-0.042-0.076-0.133-0.109-0.277-0.1V6.916H65.594z"/>
	<path fill="#FFFFFF" d="M66.047,6.967V6.916h2.08c0.53,0,0.948,0.047,1.254,0.143s0.573,0.244,0.801,0.448
		c0.229,0.204,0.408,0.464,0.542,0.782c0.133,0.317,0.2,0.672,0.2,1.063c0,0.377-0.069,0.748-0.208,1.112s-0.326,0.678-0.563,0.942
		c-0.238,0.264-0.489,0.444-0.752,0.542s-0.672,0.146-1.223,0.146h-2.129v-0.053h0.056c0.11,0,0.183-0.051,0.218-0.152
		c0.034-0.102,0.052-0.287,0.052-0.553v-3.77c0-0.281-0.021-0.451-0.062-0.509C66.27,6.998,66.18,6.967,66.047,6.967 M67.592,7.025
		h-0.695v4.019c0,0.252,0.038,0.441,0.112,0.564c0.075,0.123,0.203,0.212,0.383,0.267c0.18,0.055,0.424,0.083,0.729,0.083
		c0.849,0,1.445-0.25,1.79-0.748c0.344-0.497,0.516-1.041,0.516-1.629c0-0.692-0.236-1.29-0.707-1.797
		C69.249,7.278,68.541,7.025,67.592,7.025"/>
	<path fill="#FFFFFF" d="M73.373,9.71h-1.331l-0.686,1.954c-0.048,0.142-0.072,0.228-0.072,0.261c0,0.078,0.051,0.116,0.151,0.116
		v0.053h-0.674v-0.053c0.09,0,0.165-0.025,0.228-0.075c0.062-0.051,0.128-0.182,0.202-0.393l1.644-4.735h0.081l1.616,4.574
		c0,0.024,0.042,0.134,0.125,0.333c0.083,0.198,0.209,0.297,0.379,0.297v0.053h-1.059v-0.053c0.097,0,0.145-0.043,0.145-0.13
		c0-0.058-0.023-0.152-0.07-0.281c-0.01-0.009-0.016-0.024-0.022-0.045c-0.004-0.024-0.007-0.035-0.009-0.035L73.373,9.71z
		 M72.085,9.566h1.226L72.7,7.801L72.085,9.566z"/>
	<path fill="#FFFFFF" d="M77.486,6.916h0.681v0.052c-0.086,0.007-0.157,0.031-0.213,0.071c-0.056,0.04-0.12,0.122-0.191,0.246
		l-1.108,1.92v2.371c0,0.191,0.022,0.317,0.065,0.376c0.044,0.06,0.138,0.089,0.282,0.089v0.053H75.79v-0.053
		c0.231,0.017,0.348-0.087,0.348-0.313l-0.006-0.147V9.392l-1.11-2.101c-0.117-0.223-0.248-0.33-0.391-0.323V6.916H75.7v0.052
		c-0.099,0-0.149,0.044-0.149,0.13c0,0.044,0.025,0.113,0.077,0.207l0.914,1.724l0.999-1.737c0.019-0.019,0.039-0.053,0.062-0.104
		c0.022-0.05,0.033-0.085,0.033-0.104c0-0.077-0.043-0.117-0.132-0.117h-0.018V6.916z"/>
	<path fill="#FFFFFF" d="M30.184,15.49v0.051c-0.059-0.007-0.124,0.003-0.195,0.031s-0.113,0.067-0.127,0.121
		c-0.013,0.053-0.02,0.179-0.02,0.375v3.897c0,0.212,0.007,0.341,0.023,0.388c0.015,0.047,0.044,0.085,0.087,0.118
		c0.043,0.031,0.121,0.046,0.231,0.046v0.051h-1.187v-0.051c0.149,0,0.242-0.034,0.278-0.099c0.036-0.065,0.054-0.214,0.054-0.446
		v-3.859c0-0.241-0.021-0.398-0.061-0.474c-0.041-0.075-0.131-0.107-0.271-0.098V15.49H30.184L30.184,15.49z"/>
	<path fill="#FFFFFF" d="M34.28,15.49h0.861v0.051c-0.131,0.004-0.222,0.036-0.272,0.095c-0.05,0.059-0.075,0.182-0.075,0.37v4.624
		l-3.546-4.314v3.756c0,0.119,0.008,0.208,0.024,0.266c0.016,0.057,0.04,0.096,0.07,0.117c0.03,0.021,0.105,0.042,0.226,0.062v0.051
		h-0.854v-0.051c0.153,0,0.249-0.032,0.286-0.093c0.037-0.062,0.055-0.21,0.055-0.445v-3.435c0-0.301-0.037-0.548-0.11-0.738
		s-0.243-0.279-0.508-0.265v-0.052h0.836l3.332,4.053v-3.584c0-0.193-0.03-0.311-0.09-0.354c-0.06-0.042-0.138-0.063-0.232-0.063
		L34.28,15.49L34.28,15.49z"/>
	<path fill="#FFFFFF" d="M39.088,15.313l-0.211,0.614h-0.045c0.008-0.037,0.012-0.086,0.012-0.149c0-0.052-0.017-0.086-0.05-0.101
		c-0.033-0.015-0.085-0.022-0.158-0.022h-1.159V20c0,0.179,0.013,0.301,0.038,0.368c0.025,0.065,0.06,0.106,0.103,0.123
		c0.043,0.018,0.113,0.026,0.209,0.026v0.052h-1.204v-0.052c0.15-0.011,0.245-0.044,0.284-0.1c0.038-0.055,0.057-0.17,0.057-0.345
		v-4.417h-1.111c-0.112,0-0.186,0.008-0.22,0.022c-0.034,0.014-0.051,0.052-0.051,0.112c0,0.03,0.008,0.076,0.024,0.138h-0.045
		l-0.211-0.614h0.045c0.036,0.083,0.072,0.133,0.107,0.15c0.036,0.018,0.111,0.026,0.228,0.026h2.95
		c0.117,0,0.201-0.008,0.251-0.026c0.052-0.017,0.089-0.067,0.113-0.15L39.088,15.313L39.088,15.313z"/>
	<path fill="#FFFFFF" d="M39.324,15.548v-0.06h2.794v0.7h-0.044c-0.061-0.26-0.111-0.412-0.153-0.458s-0.143-0.07-0.303-0.07H40.15
		v2.28h1.362c0.134,0,0.22-0.014,0.256-0.043c0.037-0.029,0.055-0.071,0.058-0.125h0.045v0.479h-0.045
		c-0.011-0.066-0.034-0.111-0.071-0.134c-0.037-0.022-0.106-0.034-0.206-0.034H40.15v1.569c0,0.236,0.02,0.407,0.058,0.512
		c0.038,0.105,0.098,0.17,0.182,0.196c0.083,0.026,0.209,0.04,0.378,0.04h0.784c0.249,0,0.408-0.01,0.478-0.029
		c0.069-0.02,0.128-0.059,0.176-0.116c0.048-0.058,0.086-0.186,0.112-0.383h0.044v0.697h-3.039v-0.051
		c0.103-0.007,0.18-0.03,0.233-0.067c0.054-0.038,0.081-0.135,0.081-0.294v-4.101c0-0.186-0.014-0.318-0.043-0.393
		C39.567,15.586,39.477,15.548,39.324,15.548"/>
	<path fill="#FFFFFF" d="M42.674,15.541V15.49h1.262c0.32,0,0.551,0.008,0.694,0.023c0.144,0.016,0.289,0.069,0.44,0.16
		c0.15,0.091,0.263,0.214,0.339,0.369c0.077,0.156,0.116,0.346,0.116,0.572c0,0.257-0.068,0.503-0.204,0.737
		c-0.136,0.233-0.328,0.43-0.575,0.591l0.314,0.551c0.068,0.138,0.25,0.44,0.544,0.906c0.294,0.467,0.523,0.75,0.684,0.854
		c0.161,0.102,0.316,0.153,0.467,0.153c0.149,0,0.321-0.065,0.514-0.196l0.019,0.069c-0.241,0.226-0.555,0.337-0.941,0.337
		c-0.257,0-0.478-0.087-0.664-0.261c-0.185-0.174-0.506-0.652-0.965-1.433c-0.004-0.004-0.005-0.009-0.005-0.013l-0.447-0.785
		l-0.396,0.013h-0.362v1.942c0,0.156,0.019,0.268,0.054,0.336c0.036,0.068,0.123,0.102,0.261,0.102v0.051h-1.147v-0.051
		c0.142-0.007,0.232-0.042,0.267-0.103c0.035-0.063,0.053-0.189,0.053-0.38v-4.036c0-0.13-0.015-0.24-0.045-0.325
		C42.918,15.588,42.827,15.543,42.674,15.541 M43.507,15.624v2.383h0.466c0.368,0,0.64-0.099,0.817-0.297
		c0.178-0.198,0.266-0.458,0.266-0.779c0-0.313-0.087-0.609-0.262-0.888c-0.174-0.28-0.481-0.419-0.92-0.419H43.507z"/>
	<path fill="#FFFFFF" d="M50.98,15.49h0.86v0.051c-0.131,0.004-0.221,0.036-0.271,0.095c-0.05,0.059-0.075,0.182-0.075,0.37v4.624
		l-3.547-4.314v3.756c0,0.119,0.008,0.208,0.024,0.266c0.016,0.057,0.04,0.096,0.069,0.117c0.03,0.021,0.105,0.042,0.227,0.062
		v0.051h-0.854v-0.051c0.154,0,0.249-0.032,0.286-0.093c0.037-0.062,0.056-0.21,0.056-0.445v-3.435c0-0.301-0.037-0.548-0.111-0.738
		c-0.073-0.19-0.243-0.279-0.508-0.265v-0.052h0.836l3.332,4.053v-3.584c0-0.193-0.031-0.311-0.091-0.354
		c-0.06-0.042-0.138-0.063-0.232-0.063V15.49L50.98,15.49z"/>
	<path fill="#FFFFFF" d="M54.486,18.23h-1.305l-0.673,1.917c-0.046,0.138-0.069,0.223-0.069,0.255c0,0.076,0.049,0.114,0.148,0.114
		v0.052h-0.661v-0.052c0.088,0,0.163-0.025,0.223-0.074s0.126-0.177,0.199-0.384l1.611-4.645h0.08l1.586,4.485
		c0,0.023,0.04,0.131,0.122,0.326c0.081,0.194,0.206,0.292,0.372,0.292v0.052h-1.039v-0.052c0.095,0,0.142-0.042,0.142-0.128
		c0-0.057-0.023-0.149-0.069-0.275c-0.008-0.01-0.015-0.024-0.021-0.045c-0.004-0.023-0.006-0.034-0.009-0.034L54.486,18.23z
		 M53.224,18.088h1.203l-0.6-1.731L53.224,18.088z"/>
	<path fill="#FFFFFF" d="M59.344,15.313l-0.211,0.614h-0.045c0.008-0.037,0.012-0.086,0.012-0.149c0-0.052-0.016-0.086-0.05-0.101
		c-0.032-0.015-0.085-0.022-0.158-0.022h-1.159V20c0,0.179,0.013,0.301,0.037,0.368c0.026,0.065,0.06,0.106,0.103,0.123
		c0.043,0.018,0.113,0.026,0.209,0.026v0.052h-1.205v-0.052c0.152-0.011,0.246-0.044,0.285-0.1c0.038-0.055,0.058-0.17,0.058-0.345
		v-4.417h-1.111c-0.113,0-0.186,0.008-0.22,0.022c-0.034,0.014-0.051,0.052-0.051,0.112c0,0.03,0.008,0.076,0.023,0.138h-0.045
		l-0.211-0.614h0.045c0.035,0.083,0.071,0.133,0.107,0.15c0.035,0.018,0.111,0.026,0.228,0.026h2.95
		c0.117,0,0.201-0.008,0.251-0.026c0.052-0.017,0.089-0.067,0.113-0.15L59.344,15.313L59.344,15.313z"/>
	<path fill="#FFFFFF" d="M60.737,15.49v0.051c-0.059-0.007-0.124,0.003-0.195,0.031s-0.114,0.067-0.126,0.121
		c-0.014,0.053-0.02,0.179-0.02,0.375v3.897c0,0.212,0.008,0.341,0.023,0.388c0.015,0.047,0.043,0.085,0.087,0.118
		c0.043,0.031,0.12,0.046,0.231,0.046v0.051H59.55v-0.051c0.149,0,0.242-0.034,0.278-0.099c0.036-0.065,0.054-0.214,0.054-0.446
		v-3.859c0-0.241-0.02-0.398-0.06-0.474c-0.041-0.075-0.131-0.107-0.271-0.098V15.49H60.737L60.737,15.49z"/>
	<path fill="#FFFFFF" d="M63.64,15.414c0.624,0,1.134,0.216,1.531,0.65c0.396,0.434,0.595,0.973,0.595,1.623
		c0,0.834-0.23,1.537-0.689,2.106c-0.458,0.571-1.066,0.855-1.825,0.855c-0.616,0-1.12-0.229-1.513-0.69
		c-0.392-0.46-0.588-1.012-0.588-1.655c0-0.434,0.095-0.881,0.284-1.338c0.189-0.458,0.474-0.831,0.855-1.119
		C62.668,15.557,63.119,15.414,63.64,15.414 M63.622,20.378c0.306,0,0.608-0.094,0.906-0.281s0.532-0.446,0.704-0.775
		c0.17-0.328,0.256-0.666,0.256-1.014c0-0.491-0.115-0.939-0.346-1.341c-0.23-0.402-0.529-0.717-0.896-0.946
		c-0.368-0.227-0.708-0.34-1.019-0.34c-0.441,0-0.841,0.189-1.2,0.569c-0.359,0.379-0.539,0.85-0.539,1.413
		c0,0.72,0.22,1.353,0.658,1.897C62.584,20.106,63.077,20.378,63.622,20.378"/>
	<path fill="#FFFFFF" d="M69.858,15.49h0.86v0.051c-0.131,0.004-0.222,0.036-0.272,0.095c-0.05,0.059-0.074,0.182-0.074,0.37v4.624
		l-3.548-4.314v3.756c0,0.119,0.008,0.208,0.024,0.266c0.016,0.057,0.039,0.096,0.07,0.117c0.03,0.021,0.105,0.042,0.226,0.062
		v0.051H66.29v-0.051c0.153,0,0.249-0.032,0.286-0.093c0.037-0.062,0.056-0.21,0.056-0.445v-3.435c0-0.301-0.037-0.548-0.11-0.738
		c-0.073-0.19-0.244-0.279-0.508-0.265v-0.052h0.835l3.333,4.053v-3.584c0-0.193-0.03-0.311-0.091-0.354
		c-0.061-0.042-0.138-0.063-0.232-0.063V15.49z"/>
	<path fill="#FFFFFF" d="M73.364,18.23h-1.305l-0.673,1.917c-0.048,0.138-0.071,0.223-0.071,0.255c0,0.076,0.05,0.114,0.149,0.114
		v0.052h-0.661v-0.052c0.088,0,0.163-0.025,0.223-0.074c0.061-0.049,0.127-0.177,0.199-0.384l1.612-4.645h0.079l1.586,4.485
		c0,0.023,0.04,0.131,0.121,0.326c0.081,0.194,0.206,0.292,0.371,0.292v0.052h-1.038v-0.052c0.095,0,0.142-0.042,0.142-0.128
		c0-0.057-0.022-0.149-0.069-0.275c-0.007-0.01-0.015-0.024-0.021-0.045c-0.004-0.023-0.007-0.034-0.01-0.034L73.364,18.23z
		 M72.101,18.088h1.203l-0.601-1.731L72.101,18.088z"/>
	<path fill="#FFFFFF" d="M75.101,20.569v-0.051c0.139,0,0.229-0.03,0.271-0.09c0.041-0.059,0.062-0.162,0.062-0.307v-4.156
		c0-0.146-0.016-0.253-0.049-0.318c-0.032-0.066-0.128-0.101-0.289-0.105V15.49h1.192v0.051c-0.11,0-0.188,0.016-0.232,0.048
		c-0.045,0.032-0.073,0.07-0.087,0.114c-0.015,0.043-0.021,0.142-0.021,0.296v3.566c0,0.306,0.063,0.521,0.192,0.646
		s0.349,0.188,0.66,0.188h0.543c0.262,0,0.453-0.074,0.574-0.221c0.121-0.146,0.189-0.425,0.204-0.831h0.045v1.22H75.101z"/>
	<path fill="#FFFFFF" d="M15.149,2.945C9.323,2.945,4.6,7.607,4.6,13.359c0,5.752,4.723,10.415,10.548,10.415
		s10.548-4.663,10.548-10.415C25.697,7.607,20.975,2.945,15.149,2.945 M19.332,22.098c-0.441,0.25-0.902,0.462-1.382,0.631v-7.493
		h1.382V22.098z M19.332,14.697H17.95V3.991c0.479,0.169,0.941,0.381,1.382,0.631V14.697z M12.749,15.236v7.622
		c-0.458-0.136-0.901-0.31-1.327-0.52v-8.263h0.978h0.073h4.309v0.622h-3.444h-0.588V15.236z M16.781,3.671v9.717h-4.309h-0.073
		h-0.978V6.551V4.381c0.426-0.209,0.869-0.384,1.327-0.521v8.869h0.588V3.707c0.585-0.13,1.191-0.197,1.812-0.197
		C15.707,3.509,16.251,3.566,16.781,3.671 M6.086,13.359c0-3.479,1.661-6.534,4.166-8.287v16.574
		C7.747,19.894,6.086,16.838,6.086,13.359 M13.336,23.012v-7.776h3.444v7.812c-0.529,0.104-1.074,0.162-1.632,0.162
		C14.528,23.21,13.922,23.142,13.336,23.012 M19.92,21.734V4.985c2.575,1.737,4.292,4.837,4.292,8.374
		C24.211,16.896,22.495,19.997,19.92,21.734"/>
</g>
</svg>
