<?xml version="1.0" encoding="utf-8"?>
<!-- Generator: Adobe Illustrator 16.0.0, SVG Export Plug-In . SVG Version: 6.00 Build 0)  -->
<!DOCTYPE svg PUBLIC "-//W3C//DTD SVG 1.1//EN" "http://www.w3.org/Graphics/SVG/1.1/DTD/svg11.dtd">
<svg version="1.1" id="Layer_1" xmlns="http://www.w3.org/2000/svg" xmlns:xlink="http://www.w3.org/1999/xlink" x="0px" y="0px"
	 width="608.772px" height="594.737px" viewBox="0 0 608.772 594.737" enable-background="new 0 0 608.772 594.737"
	 xml:space="preserve">
<rect x="0.491" y="0.333" fill="none" width="608" height="594"/>
<path fill="#231F20" d="M302.864,58.083c-130.918,0-237.048,104.781-237.048,234.037c0,129.257,106.13,234.037,237.048,234.037
	c130.918,0,237.047-104.78,237.047-234.037C539.911,162.864,433.782,58.083,302.864,58.083 M396.86,488.479
	c-9.904,5.615-20.277,10.373-31.053,14.178V334.293h31.053V488.479z M396.86,322.171h-31.053V81.584
	c10.775,3.804,21.148,8.563,31.053,14.177V322.171z M248.922,334.293v171.279c-10.294-3.064-20.251-6.991-29.825-11.694V308.193
	h21.98h1.629h96.83v13.979h-77.394h-13.22V334.293z M339.536,74.407v218.361h-96.83h-1.629h-21.98V139.119V90.362
	c9.574-4.704,19.531-8.629,29.825-11.695v199.307h13.22V75.191c13.158-2.903,26.775-4.434,40.722-4.434
	C315.392,70.757,327.635,72.052,339.536,74.407 M99.21,292.12c0-78.178,37.319-146.84,93.615-186.224v372.449
	C136.529,438.96,99.21,370.296,99.21,292.12 M262.142,509.048V334.293h77.394v175.539c-11.901,2.354-24.145,3.649-36.672,3.649
	C288.917,513.482,275.3,511.952,262.142,509.048 M410.081,480.312V103.93c57.878,39.042,96.437,108.707,96.437,188.19
	C506.518,371.604,467.959,441.269,410.081,480.312"/>
</svg>
